<svg width="139" height="66" viewBox="0 0 139 66" fill="none" xmlns="http://www.w3.org/2000/svg">
<path d="M85.2221 9.04912L77.7206 1.48091C77.5236 1.2822 77.202 1.28377 77.0069 1.48437L66.1884 12.6131C66.0976 12.7064 66.0469 12.8315 66.0469 12.9616V27.8841C66.0469 28.3306 66.5877 28.5532 66.902 28.236L85.2221 9.75309C85.4153 9.5582 85.4153 9.24402 85.2221 9.04912Z" fill="#9B0000"/>
<path d="M106.174 7.93199L98.4576 0.352224C98.2599 0.157994 97.9419 0.161658 97.7487 0.360392L86.9281 11.4912C86.8358 11.5862 86.7849 11.7139 86.7867 11.8464L86.9897 27.0021C86.9956 27.4467 87.5355 27.6629 87.8467 27.3454L106.18 8.63865C106.373 8.44159 106.37 8.12534 106.174 7.93199Z" fill="#9B0000"/>
<path d="M76.723 21.1183L83.932 13.8453C84.2464 13.5281 84.7871 13.7507 84.7871 14.1972V36.3899C84.7871 36.8364 84.2464 37.059 83.932 36.7419L76.723 29.4688C76.6302 29.3752 76.5781 29.2487 76.5781 29.1168V21.4703C76.5781 21.3385 76.6302 21.212 76.723 21.1183Z" fill="#9B0000"/>
<path d="M61.0527 13.9733L53.5399 6.18886C53.3445 5.9864 53.0206 5.98498 52.8234 6.18572L29.3457 30.0894C29.154 30.2846 29.1547 30.5975 29.3473 30.7918L36.8539 38.3651C37.0495 38.5625 37.3685 38.5625 37.5641 38.3651L61.048 14.6725C61.2394 14.4794 61.2414 14.1688 61.0527 13.9733Z" fill="#B7BDCD"/>
<path d="M55.9886 22.461L63.1976 15.1879C63.512 14.8708 64.0528 15.0934 64.0528 15.5399V37.532C64.0528 37.9752 63.5188 38.1993 63.2025 37.8888L55.9935 30.8123C55.8977 30.7183 55.8438 30.5897 55.8438 30.4555V22.813C55.8438 22.6811 55.8958 22.5546 55.9886 22.461Z" fill="#B7BDCD"/>
<path d="M5.53027 46.0771C5.21126 46.0771 4.92643 46.1455 4.67578 46.2822C4.42513 46.4144 4.21094 46.6081 4.0332 46.8633C3.85547 47.1185 3.71875 47.4307 3.62305 47.7998C3.5319 48.1644 3.48633 48.5791 3.48633 49.0439C3.48633 49.6729 3.56608 50.2015 3.72559 50.6299C3.88509 51.0583 4.12663 51.3818 4.4502 51.6006C4.77832 51.8193 5.18848 51.9287 5.68066 51.9287C6.12728 51.9287 6.55566 51.8672 6.96582 51.7441C7.38053 51.6211 7.79753 51.473 8.2168 51.2998V53.583C7.77474 53.779 7.32129 53.9202 6.85645 54.0068C6.39616 54.0934 5.90625 54.1367 5.38672 54.1367C4.30208 54.1367 3.41341 53.9225 2.7207 53.4941C2.03255 53.0612 1.52441 52.4619 1.19629 51.6963C0.872721 50.9307 0.710938 50.042 0.710938 49.0303C0.710938 48.2738 0.815755 47.5811 1.02539 46.9521C1.23958 46.3232 1.55176 45.7786 1.96191 45.3184C2.37207 44.8535 2.87793 44.4958 3.47949 44.2451C4.08561 43.9899 4.77832 43.8623 5.55762 43.8623C6.04069 43.8623 6.54883 43.9193 7.08203 44.0332C7.61979 44.1426 8.14388 44.3203 8.6543 44.5664L7.82715 46.6924C7.46257 46.5192 7.09342 46.3734 6.71973 46.2549C6.34603 46.1364 5.94954 46.0771 5.53027 46.0771ZM13.4463 44.0059C14.3532 44.0059 15.1074 44.1175 15.709 44.3408C16.3105 44.5596 16.7617 44.8877 17.0625 45.3252C17.3678 45.7627 17.5205 46.3073 17.5205 46.959C17.5205 47.3646 17.4521 47.7337 17.3154 48.0664C17.1787 48.3991 16.9827 48.6976 16.7275 48.9619C16.4769 49.2217 16.1761 49.4495 15.8252 49.6455L18.7373 54H15.6748L13.5557 50.3633H12.8721V54H10.1719V44.0059H13.4463ZM13.4053 46.0498H12.8721V48.333H13.3779C13.7926 48.333 14.1322 48.2419 14.3965 48.0596C14.6608 47.8773 14.793 47.5514 14.793 47.082C14.793 46.7585 14.6836 46.5055 14.4648 46.3232C14.2461 46.141 13.8929 46.0498 13.4053 46.0498ZM25.5801 54H19.6465V44.0059H25.5801V46.1729H22.3467V47.7451H25.3408V49.9121H22.3467V51.7988H25.5801V54ZM25.9424 41.0186V41.1621C25.7783 41.2943 25.5687 41.4561 25.3135 41.6475C25.0583 41.8343 24.7871 42.0303 24.5 42.2354C24.2174 42.4359 23.9417 42.6273 23.6729 42.8096C23.4085 42.9919 23.1807 43.1423 22.9893 43.2607H21.2119V43.0625C21.3714 42.8893 21.5628 42.6842 21.7861 42.4473C22.0094 42.2057 22.2327 41.9596 22.4561 41.709C22.6794 41.4583 22.8662 41.2282 23.0166 41.0186H25.9424ZM35.8135 48.791C35.8135 49.9531 35.597 50.9193 35.1641 51.6895C34.7311 52.4596 34.1204 53.0384 33.332 53.4258C32.5482 53.8086 31.6253 54 30.5635 54H27.3301V44.0059H30.7891C31.8646 44.0059 32.776 44.1904 33.5234 44.5596C34.2708 44.9287 34.8382 45.4688 35.2256 46.1797C35.6175 46.8906 35.8135 47.7611 35.8135 48.791ZM33.0107 48.8867C33.0107 48.2806 32.9287 47.7793 32.7646 47.3828C32.6051 46.9818 32.3636 46.6833 32.04 46.4873C31.7165 46.2868 31.3086 46.1865 30.8164 46.1865H30.0303V51.7852H30.6318C31.4521 51.7852 32.0537 51.5482 32.4365 51.0742C32.8193 50.5957 33.0107 49.8665 33.0107 48.8867ZM37.6113 54V44.0059H40.3252V54H37.6113ZM46.9014 54H44.2012V46.2139H41.7607V44.0059H49.335V46.2139H46.9014V54ZM60.1152 48.9893C60.1152 49.7594 60.0218 50.4613 59.835 51.0947C59.6527 51.7236 59.3656 52.266 58.9736 52.7217C58.5817 53.1774 58.0781 53.5283 57.4629 53.7744C56.8477 54.016 56.1117 54.1367 55.2549 54.1367C54.4163 54.1367 53.6895 54.016 53.0742 53.7744C52.4635 53.5283 51.96 53.1797 51.5635 52.7285C51.167 52.2728 50.873 51.7282 50.6816 51.0947C50.4902 50.4613 50.3945 49.7549 50.3945 48.9756C50.3945 47.9365 50.5654 47.0342 50.9072 46.2686C51.2536 45.4984 51.7868 44.9036 52.5068 44.4844C53.2269 44.0605 54.1475 43.8486 55.2686 43.8486C56.4079 43.8486 57.333 44.0605 58.0439 44.4844C58.7594 44.9082 59.2835 45.5052 59.6162 46.2754C59.9489 47.0456 60.1152 47.9502 60.1152 48.9893ZM53.2383 48.9893C53.2383 49.5908 53.3066 50.1081 53.4434 50.541C53.5801 50.974 53.7965 51.3066 54.0928 51.5391C54.389 51.7715 54.7764 51.8877 55.2549 51.8877C55.7516 51.8877 56.1458 51.7715 56.4375 51.5391C56.7337 51.3066 56.9456 50.974 57.0732 50.541C57.2054 50.1081 57.2715 49.5908 57.2715 48.9893C57.2715 48.0869 57.1211 47.3737 56.8203 46.8496C56.5195 46.3255 56.0023 46.0635 55.2686 46.0635C54.7809 46.0635 54.3867 46.182 54.0859 46.4189C53.7897 46.6559 53.5732 46.9932 53.4365 47.4307C53.3044 47.8682 53.2383 48.3877 53.2383 48.9893ZM68.4551 50.9648C68.4551 51.5072 68.3184 52.0221 68.0449 52.5098C67.7715 52.9928 67.3454 53.3848 66.7666 53.6855C66.1924 53.9863 65.4495 54.1367 64.5381 54.1367C64.0824 54.1367 63.6813 54.1162 63.335 54.0752C62.9932 54.0342 62.6742 53.9681 62.3779 53.877C62.0817 53.7812 61.7741 53.6582 61.4551 53.5078V51.1016C61.9974 51.375 62.5443 51.5846 63.0957 51.7305C63.6471 51.8717 64.1462 51.9424 64.5928 51.9424C64.8617 51.9424 65.0804 51.9105 65.249 51.8467C65.4222 51.7829 65.5498 51.6963 65.6318 51.5869C65.7139 51.473 65.7549 51.3431 65.7549 51.1973C65.7549 51.0241 65.6934 50.8783 65.5703 50.7598C65.4518 50.6367 65.2604 50.5091 64.9961 50.377C64.7318 50.2448 64.3831 50.0807 63.9502 49.8848C63.5811 49.7116 63.2461 49.5339 62.9453 49.3516C62.6491 49.1693 62.3939 48.9619 62.1797 48.7295C61.9701 48.4925 61.8083 48.2168 61.6943 47.9023C61.5804 47.5879 61.5234 47.2165 61.5234 46.7881C61.5234 46.1455 61.6807 45.6077 61.9951 45.1748C62.3141 44.7373 62.7562 44.4092 63.3213 44.1904C63.891 43.9717 64.5472 43.8623 65.29 43.8623C65.9417 43.8623 66.5273 43.9352 67.0469 44.0811C67.571 44.2269 68.0404 44.3932 68.4551 44.5801L67.6279 46.665C67.1995 46.4691 66.778 46.3141 66.3633 46.2002C65.9486 46.0817 65.5635 46.0225 65.208 46.0225C64.9756 46.0225 64.7842 46.0521 64.6338 46.1113C64.488 46.166 64.3786 46.2412 64.3057 46.3369C64.2373 46.4326 64.2031 46.542 64.2031 46.665C64.2031 46.82 64.2624 46.959 64.3809 47.082C64.5039 47.2051 64.7067 47.3395 64.9893 47.4854C65.2764 47.6266 65.666 47.8112 66.1582 48.0391C66.6458 48.2578 67.0605 48.4948 67.4023 48.75C67.7441 49.0007 68.0039 49.3037 68.1816 49.6592C68.3639 50.0101 68.4551 50.4453 68.4551 50.9648Z" fill="#B7BDCD"/>
<path d="M79.5703 54H73.6367V44.0059H79.5703V46.1729H76.3369V47.7451H79.3311V49.9121H76.3369V51.7988H79.5703V54ZM84.8887 47.7109L86.6113 44.0059H89.5371L86.249 50.0967V54H83.5283V50.1787L80.2402 44.0059H83.1797L84.8887 47.7109ZM95.0264 54H92.3262V46.2139H89.8857V44.0059H97.46V46.2139H95.0264V54ZM107.454 54H104.74V49.9258H101.603V54H98.8887V44.0059H101.603V47.7109H104.74V44.0059H107.454V54ZM115.753 54L115.261 52.127H112.014L111.508 54H108.541L111.802 43.9648H115.404L118.706 54H115.753ZM114.7 49.9121L114.27 48.2715C114.224 48.0938 114.158 47.8408 114.071 47.5127C113.985 47.18 113.898 46.8382 113.812 46.4873C113.729 46.1318 113.666 45.8402 113.62 45.6123C113.579 45.8402 113.52 46.1227 113.442 46.46C113.369 46.7926 113.292 47.123 113.21 47.4512C113.132 47.7793 113.064 48.0527 113.005 48.2715L112.574 49.9121H114.7ZM129.309 54H125.768L122.117 46.959H122.056C122.078 47.1732 122.099 47.4307 122.117 47.7314C122.135 48.0322 122.151 48.3398 122.165 48.6543C122.179 48.9642 122.186 49.2445 122.186 49.4951V54H119.793V44.0059H123.32L126.957 50.9512H126.998C126.984 50.7324 126.971 50.4795 126.957 50.1924C126.943 49.9007 126.93 49.6068 126.916 49.3105C126.907 49.0143 126.902 48.7523 126.902 48.5244V44.0059H129.309V54Z" fill="#9B0000"/>
<path d="M23.509 62.974C23.194 63.118 22.735 63.199 22.294 63.199C21.097 63.199 20.575 62.443 20.575 61.417C20.575 60.544 20.917 59.779 21.457 59.311C21.862 58.942 22.429 58.744 22.996 58.744C23.527 58.744 23.941 58.852 24.139 58.96L24.445 58.114C24.274 58.006 23.788 57.844 23.122 57.844C22.249 57.844 21.493 58.087 20.863 58.564C19.981 59.212 19.441 60.283 19.441 61.552C19.441 63.127 20.449 64.099 22.024 64.099C22.735 64.099 23.284 63.973 23.608 63.82L23.509 62.974ZM25.2711 64L25.6041 62.236C25.7751 61.3 26.2521 60.544 26.9991 60.544C27.0711 60.544 27.1431 60.544 27.1971 60.553L27.4041 59.527C27.3321 59.527 27.2511 59.518 27.1701 59.518C26.5761 59.518 26.0991 59.95 25.8021 60.535H25.7751C25.8201 60.22 25.8471 59.914 25.8741 59.617H24.9651C24.9201 60.004 24.8571 60.679 24.7401 61.3L24.2271 64H25.2711ZM30.5566 62.983C30.2416 63.145 29.8456 63.271 29.3506 63.271C28.9366 63.271 28.6216 63.118 28.4506 62.821C28.3516 62.65 28.3156 62.353 28.3336 62.2C30.0256 62.236 31.2046 61.876 31.2046 60.751C31.2046 60.013 30.6556 59.518 29.7916 59.518C28.2796 59.518 27.3076 60.958 27.3076 62.281C27.3076 63.352 27.8926 64.099 29.1076 64.099C29.6386 64.099 30.2236 63.973 30.6556 63.748L30.5566 62.983ZM30.2146 60.751C30.2146 61.282 29.5216 61.426 28.4416 61.417C28.5676 60.886 28.9996 60.301 29.6566 60.301C29.9896 60.301 30.2146 60.472 30.2146 60.751ZM34.5431 63.037C34.3271 63.136 34.0211 63.244 33.6161 63.244C33.0311 63.244 32.6531 62.875 32.6531 62.218C32.6531 61.3 33.2921 60.373 34.3001 60.373C34.5971 60.373 34.8041 60.436 34.9661 60.508L35.2361 59.689C35.0651 59.617 34.7231 59.527 34.3361 59.527C32.7161 59.527 31.5551 60.814 31.5551 62.344C31.5551 63.388 32.2301 64.09 33.3281 64.09C33.8861 64.09 34.3271 63.964 34.5881 63.838L34.5431 63.037ZM36.2728 64L37.1098 59.617H36.0658L35.2288 64H36.2728ZM36.7588 58.987C37.1188 58.987 37.4068 58.744 37.4158 58.357C37.4158 58.024 37.1908 57.799 36.8578 57.799C36.5158 57.799 36.2278 58.06 36.2278 58.429C36.2278 58.762 36.4438 58.987 36.7588 58.987ZM40.7145 62.983C40.3995 63.145 40.0035 63.271 39.5085 63.271C39.0945 63.271 38.7795 63.118 38.6085 62.821C38.5095 62.65 38.4735 62.353 38.4915 62.2C40.1835 62.236 41.3625 61.876 41.3625 60.751C41.3625 60.013 40.8135 59.518 39.9495 59.518C38.4375 59.518 37.4655 60.958 37.4655 62.281C37.4655 63.352 38.0505 64.099 39.2655 64.099C39.7965 64.099 40.3815 63.973 40.8135 63.748L40.7145 62.983ZM40.3725 60.751C40.3725 61.282 39.6795 61.426 38.5995 61.417C38.7255 60.886 39.1575 60.301 39.8145 60.301C40.1475 60.301 40.3725 60.472 40.3725 60.751ZM42.6316 64L43.0096 61.975C43.1986 60.949 43.8106 60.373 44.2876 60.373C44.7016 60.373 44.8366 60.634 44.8366 61.003C44.8366 61.174 44.8096 61.363 44.7826 61.525L44.3146 64H45.3676L45.8446 61.444C45.8896 61.228 45.9256 60.922 45.9256 60.724C45.9256 59.896 45.4396 59.518 44.8096 59.518C44.1976 59.518 43.6396 59.815 43.2346 60.4H43.2166L43.3156 59.617H42.3796C42.3256 59.995 42.2626 60.454 42.1546 60.976L41.5876 64H42.6316ZM50.3204 57.61L49.9334 59.644C49.7444 59.563 49.4834 59.518 49.2584 59.518C47.6474 59.518 46.5224 60.931 46.5224 62.479C46.5224 63.469 47.0714 64.099 47.8544 64.099C48.4214 64.099 48.9704 63.82 49.3574 63.226H49.3754L49.2854 64H50.2484C50.2754 63.523 50.3474 62.947 50.4464 62.434L51.3644 57.61H50.3204ZM49.5194 61.831C49.3484 62.74 48.7814 63.253 48.3134 63.253C47.8184 63.253 47.6114 62.839 47.6114 62.308C47.6114 61.327 48.2774 60.328 49.1774 60.328C49.4384 60.328 49.6544 60.4 49.7804 60.499L49.5194 61.831ZM53.8794 59.518C52.3854 59.518 51.3504 60.805 51.3504 62.29C51.3504 63.334 52.0344 64.099 53.1414 64.099C54.6354 64.099 55.6704 62.821 55.6704 61.327C55.6704 60.364 55.0584 59.518 53.8794 59.518ZM53.7534 60.328C54.3834 60.328 54.5904 60.886 54.5904 61.336C54.5904 62.209 54.0684 63.289 53.2854 63.289C52.7454 63.289 52.4304 62.866 52.4304 62.263C52.4304 61.444 52.9164 60.328 53.7534 60.328ZM58.9707 63.775C59.2047 63.946 59.6817 64.09 60.1947 64.099C61.2477 64.108 62.0577 63.568 62.0577 62.596C62.0577 62.038 61.6347 61.678 61.1487 61.417C60.7707 61.228 60.5817 61.057 60.5817 60.805C60.5817 60.508 60.8517 60.301 61.2477 60.301C61.6077 60.301 61.8957 60.409 62.0667 60.499L62.3277 59.743C62.1387 59.626 61.7607 59.518 61.3017 59.518C60.2667 59.518 59.5287 60.112 59.5287 60.958C59.5287 61.462 59.8887 61.831 60.3927 62.101C60.8247 62.326 60.9687 62.506 60.9687 62.776C60.9687 63.073 60.7167 63.316 60.2937 63.316C59.8977 63.316 59.4657 63.154 59.2407 63.028L58.9707 63.775ZM63.6593 64L64.4963 59.617H63.4523L62.6153 64H63.6593ZM64.1453 58.987C64.5053 58.987 64.7933 58.744 64.8023 58.357C64.8023 58.024 64.5773 57.799 64.2443 57.799C63.9023 57.799 63.6143 58.06 63.6143 58.429C63.6143 58.762 63.8303 58.987 64.1453 58.987ZM68.101 62.983C67.786 63.145 67.39 63.271 66.895 63.271C66.481 63.271 66.166 63.118 65.995 62.821C65.896 62.65 65.86 62.353 65.878 62.2C67.57 62.236 68.749 61.876 68.749 60.751C68.749 60.013 68.2 59.518 67.336 59.518C65.824 59.518 64.852 60.958 64.852 62.281C64.852 63.352 65.437 64.099 66.652 64.099C67.183 64.099 67.768 63.973 68.2 63.748L68.101 62.983ZM67.759 60.751C67.759 61.282 67.066 61.426 65.986 61.417C66.112 60.886 66.544 60.301 67.201 60.301C67.534 60.301 67.759 60.472 67.759 60.751ZM69.9912 64L70.3692 61.93C70.5312 61.039 71.0892 60.373 71.5752 60.373C72.0072 60.373 72.1062 60.679 72.1062 61.003C72.1062 61.165 72.0792 61.336 72.0522 61.516L71.5752 64H72.5922L72.9792 61.903C73.1502 60.976 73.6812 60.373 74.1672 60.373C74.5452 60.373 74.6982 60.625 74.6982 61.003C74.6982 61.174 74.6712 61.381 74.6352 61.552L74.1852 64H75.2022L75.6792 61.435C75.7152 61.201 75.7512 60.877 75.7512 60.688C75.7512 59.905 75.2832 59.518 74.6892 59.518C74.0772 59.527 73.5282 59.824 73.1322 60.418C73.0962 59.959 72.7902 59.518 72.1062 59.518C71.5302 59.518 70.9812 59.797 70.5762 60.382H70.5582L70.6572 59.617H69.7482C69.6942 59.995 69.6312 60.454 69.5322 60.976L68.9742 64H69.9912ZM76.9463 65.782L77.3063 63.91H77.3243C77.4773 64 77.7923 64.099 78.1973 64.099C79.6913 64.099 80.7443 62.677 80.7443 61.138C80.7443 60.283 80.3123 59.518 79.3583 59.518C78.8003 59.527 78.2513 59.824 77.8823 60.337H77.8643L77.9633 59.599H77.0183C76.9553 60.04 76.8563 60.724 76.7663 61.246L75.9023 65.782H76.9463ZM77.6573 61.993C77.8463 60.967 78.4223 60.373 78.9533 60.373C79.4753 60.373 79.6463 60.823 79.6463 61.219C79.6463 62.209 78.9893 63.289 78.1703 63.289C77.8733 63.289 77.6393 63.208 77.4683 63.064L77.6573 61.993ZM82.1251 64L82.4581 62.236C82.6291 61.3 83.1061 60.544 83.8531 60.544C83.9251 60.544 83.9971 60.544 84.0511 60.553L84.2581 59.527C84.1861 59.527 84.1051 59.518 84.0241 59.518C83.4301 59.518 82.9531 59.95 82.6561 60.535H82.6291C82.6741 60.22 82.7011 59.914 82.7281 59.617H81.8191C81.7741 60.004 81.7111 60.679 81.5941 61.3L81.0811 64H82.1251ZM87.4105 62.983C87.0955 63.145 86.6995 63.271 86.2045 63.271C85.7905 63.271 85.4755 63.118 85.3045 62.821C85.2055 62.65 85.1695 62.353 85.1875 62.2C86.8795 62.236 88.0585 61.876 88.0585 60.751C88.0585 60.013 87.5095 59.518 86.6455 59.518C85.1335 59.518 84.1615 60.958 84.1615 62.281C84.1615 63.352 84.7465 64.099 85.9615 64.099C86.4925 64.099 87.0775 63.973 87.5095 63.748L87.4105 62.983ZM87.0685 60.751C87.0685 61.282 86.3755 61.426 85.2955 61.417C85.4215 60.886 85.8535 60.301 86.5105 60.301C86.8435 60.301 87.0685 60.472 87.0685 60.751ZM92.9197 63.037C92.7037 63.136 92.3977 63.244 91.9927 63.244C91.4077 63.244 91.0297 62.875 91.0297 62.218C91.0297 61.3 91.6687 60.373 92.6767 60.373C92.9737 60.373 93.1807 60.436 93.3427 60.508L93.6127 59.689C93.4417 59.617 93.0997 59.527 92.7127 59.527C91.0927 59.527 89.9317 60.814 89.9317 62.344C89.9317 63.388 90.6067 64.09 91.7047 64.09C92.2627 64.09 92.7037 63.964 92.9647 63.838L92.9197 63.037ZM96.2424 59.518C94.7484 59.518 93.7134 60.805 93.7134 62.29C93.7134 63.334 94.3974 64.099 95.5044 64.099C96.9984 64.099 98.0334 62.821 98.0334 61.327C98.0334 60.364 97.4214 59.518 96.2424 59.518ZM96.1164 60.328C96.7464 60.328 96.9534 60.886 96.9534 61.336C96.9534 62.209 96.4314 63.289 95.6484 63.289C95.1084 63.289 94.7934 62.866 94.7934 62.263C94.7934 61.444 95.2794 60.328 96.1164 60.328ZM99.4417 64L99.8197 61.975C100.009 60.949 100.621 60.373 101.098 60.373C101.512 60.373 101.647 60.634 101.647 61.003C101.647 61.174 101.62 61.363 101.593 61.525L101.125 64H102.178L102.655 61.444C102.7 61.228 102.736 60.922 102.736 60.724C102.736 59.896 102.25 59.518 101.62 59.518C101.008 59.518 100.45 59.815 100.045 60.4H100.027L100.126 59.617H99.1897C99.1357 59.995 99.0727 60.454 98.9647 60.976L98.3977 64H99.4417ZM104.394 58.798L104.232 59.617H103.647L103.494 60.427H104.079L103.701 62.38C103.638 62.704 103.611 62.947 103.611 63.19C103.611 63.694 103.926 64.09 104.646 64.09C104.898 64.09 105.177 64.063 105.33 64L105.429 63.181C105.321 63.199 105.195 63.208 105.069 63.208C104.79 63.208 104.682 63.055 104.682 62.812C104.682 62.623 104.718 62.398 104.763 62.191L105.105 60.427H106.086L106.248 59.617H105.267L105.474 58.492L104.394 58.798ZM107.198 64L108.035 59.617H106.991L106.154 64H107.198ZM107.684 58.987C108.044 58.987 108.332 58.744 108.341 58.357C108.341 58.024 108.116 57.799 107.783 57.799C107.441 57.799 107.153 58.06 107.153 58.429C107.153 58.762 107.369 58.987 107.684 58.987ZM108.22 65.584C108.508 65.764 109.03 65.881 109.597 65.881C110.146 65.881 110.758 65.773 111.217 65.395C111.712 64.981 111.955 64.297 112.117 63.442L112.783 59.824C112.378 59.644 111.829 59.518 111.262 59.518C109.444 59.518 108.391 60.967 108.4 62.434C108.4 63.262 108.895 63.982 109.768 63.982C110.326 63.982 110.785 63.73 111.145 63.208H111.163L111.055 63.703C110.839 64.72 110.317 65.044 109.633 65.044C109.219 65.044 108.733 64.936 108.481 64.783L108.22 65.584ZM111.397 61.75C111.244 62.542 110.722 63.163 110.2 63.163C109.678 63.163 109.498 62.731 109.498 62.272C109.498 61.327 110.146 60.337 111.064 60.337C111.307 60.337 111.532 60.391 111.649 60.445L111.397 61.75ZM115.73 59.518C114.236 59.518 113.201 60.805 113.201 62.29C113.201 63.334 113.885 64.099 114.992 64.099C116.486 64.099 117.521 62.821 117.521 61.327C117.521 60.364 116.909 59.518 115.73 59.518ZM115.604 60.328C116.234 60.328 116.441 60.886 116.441 61.336C116.441 62.209 115.919 63.289 115.136 63.289C114.596 63.289 114.281 62.866 114.281 62.263C114.281 61.444 114.767 60.328 115.604 60.328Z" fill="#B7BDCD"/>
</svg>
