<svg width="176" height="87" viewBox="0 0 176 87" fill="none" xmlns="http://www.w3.org/2000/svg">
<path d="M127.646 20.6466L109.857 2.85716C109.66 2.66055 109.341 2.6621 109.146 2.86061L84.143 28.3543C84.0514 28.4478 84 28.5735 84 28.7044V63.793C84 64.2385 84.5386 64.4616 84.8536 64.1466L127.646 21.3537C127.842 21.1584 127.842 20.8419 127.646 20.6466Z" fill="#9B0000"/>
<path d="M174.884 18.1485L156.602 0.347546C156.405 0.155398 156.089 0.159034 155.897 0.355678L130.891 25.8513C130.798 25.9465 130.746 26.0749 130.748 26.2082L131.229 61.8063C131.235 62.2498 131.773 62.4665 132.085 62.1511L174.891 18.8583C175.086 18.6609 175.083 18.3422 174.884 18.1485Z" fill="#9B0000"/>
<path d="M107.892 47.3536L125.392 29.8536C125.707 29.5386 126.245 29.7617 126.245 30.2071V82.7929C126.245 83.2383 125.707 83.4614 125.392 83.1464L107.892 65.6464C107.798 65.5527 107.745 65.4255 107.745 65.2929V47.7071C107.745 47.5745 107.798 47.4473 107.892 47.3536Z" fill="#9B0000"/>
<path d="M73.1558 31.6467L55.3551 13.3649C55.16 13.1645 54.8385 13.1631 54.6417 13.3617L0.850332 67.6466C0.656591 67.8421 0.657311 68.1575 0.851943 68.3521L18.6464 86.1466C18.8417 86.3419 19.1583 86.3419 19.3536 86.1466L73.1511 32.349C73.3446 32.1556 73.3466 31.8426 73.1558 31.6467Z" fill="#B7BDCD"/>
<path d="M61.1464 50.3537L78.6464 32.8537C78.9614 32.5387 79.5 32.7618 79.5 33.2073V85.316C79.5 85.7582 78.9682 85.9828 78.6513 85.6744L61.1513 68.6474C61.0546 68.5533 61 68.424 61 68.289V50.7073C61 50.5747 61.0527 50.4475 61.1464 50.3537Z" fill="#B7BDCD"/>
</svg>
