<svg width="311" height="129" viewBox="0 0 311 129" fill="none" xmlns="http://www.w3.org/2000/svg">
<path d="M12.6406 105.891C11.9115 105.891 11.2604 106.047 10.6875 106.36C10.1146 106.662 9.625 107.104 9.21875 107.688C8.8125 108.271 8.5 108.985 8.28125 109.828C8.07292 110.662 7.96875 111.61 7.96875 112.672C7.96875 114.11 8.15104 115.318 8.51562 116.297C8.88021 117.276 9.43229 118.016 10.1719 118.516C10.9219 119.016 11.8594 119.266 12.9844 119.266C14.0052 119.266 14.9844 119.125 15.9219 118.844C16.8698 118.563 17.8229 118.224 18.7812 117.828V123.047C17.7708 123.495 16.7344 123.818 15.6719 124.016C14.6198 124.214 13.5 124.313 12.3125 124.313C9.83333 124.313 7.80208 123.823 6.21875 122.844C4.64583 121.854 3.48438 120.485 2.73438 118.735C1.99479 116.985 1.625 114.953 1.625 112.641C1.625 110.912 1.86458 109.328 2.34375 107.891C2.83333 106.453 3.54688 105.209 4.48438 104.156C5.42188 103.094 6.57812 102.276 7.95312 101.703C9.33854 101.12 10.9219 100.828 12.7031 100.828C13.8073 100.828 14.9688 100.959 16.1875 101.219C17.4167 101.469 18.6146 101.875 19.7812 102.438L17.8906 107.297C17.0573 106.901 16.2135 106.568 15.3594 106.297C14.5052 106.026 13.599 105.891 12.6406 105.891ZM30.7344 101.156C32.8073 101.156 34.5312 101.412 35.9062 101.922C37.2812 102.422 38.3125 103.172 39 104.172C39.6979 105.172 40.0469 106.417 40.0469 107.906C40.0469 108.834 39.8906 109.677 39.5781 110.438C39.2656 111.198 38.8177 111.88 38.2344 112.485C37.6615 113.078 36.974 113.599 36.1719 114.047L42.8281 124H35.8281L30.9844 115.688H29.4219V124H23.25V101.156H30.7344ZM30.6406 105.828H29.4219V111.047H30.5781C31.526 111.047 32.3021 110.839 32.9062 110.422C33.5104 110.005 33.8125 109.261 33.8125 108.188C33.8125 107.448 33.5625 106.87 33.0625 106.453C32.5625 106.037 31.7552 105.828 30.6406 105.828ZM58.4688 124H44.9062V101.156H58.4688V106.11H51.0781V109.703H57.9219V114.656H51.0781V118.969H58.4688V124ZM59.2969 94.3284V94.6565C58.9219 94.9586 58.4427 95.3284 57.8594 95.7659C57.276 96.193 56.6562 96.6409 56 97.1096C55.3542 97.568 54.724 98.0055 54.1094 98.4221C53.5052 98.8388 52.9844 99.1825 52.5469 99.4534H48.4844V99.0002C48.849 98.6044 49.2865 98.1357 49.7969 97.594C50.3073 97.0419 50.8177 96.4794 51.3281 95.9065C51.8385 95.3336 52.2656 94.8075 52.6094 94.3284H59.2969ZM81.8594 112.094C81.8594 114.75 81.3646 116.959 80.375 118.719C79.3854 120.479 77.9896 121.802 76.1875 122.688C74.3958 123.563 72.2865 124 69.8594 124H62.4688V101.156H70.375C72.8333 101.156 74.9167 101.578 76.625 102.422C78.3333 103.266 79.6302 104.5 80.5156 106.125C81.4115 107.75 81.8594 109.74 81.8594 112.094ZM75.4531 112.313C75.4531 110.927 75.2656 109.781 74.8906 108.875C74.526 107.959 73.974 107.276 73.2344 106.828C72.4948 106.37 71.5625 106.141 70.4375 106.141H68.6406V118.938H70.0156C71.8906 118.938 73.2656 118.396 74.1406 117.313C75.0156 116.219 75.4531 114.552 75.4531 112.313ZM85.9688 124V101.156H92.1719V124H85.9688ZM107.203 124H101.031V106.203H95.4531V101.156H112.766V106.203H107.203V124ZM137.406 112.547C137.406 114.308 137.193 115.912 136.766 117.36C136.349 118.797 135.693 120.037 134.797 121.078C133.901 122.12 132.75 122.922 131.344 123.485C129.938 124.037 128.255 124.313 126.297 124.313C124.38 124.313 122.719 124.037 121.312 123.485C119.917 122.922 118.766 122.125 117.859 121.094C116.953 120.052 116.281 118.808 115.844 117.36C115.406 115.912 115.188 114.297 115.188 112.516C115.188 110.141 115.578 108.078 116.359 106.328C117.151 104.568 118.37 103.209 120.016 102.25C121.661 101.281 123.766 100.797 126.328 100.797C128.932 100.797 131.047 101.281 132.672 102.25C134.307 103.219 135.505 104.584 136.266 106.344C137.026 108.104 137.406 110.172 137.406 112.547ZM121.688 112.547C121.688 113.922 121.844 115.104 122.156 116.094C122.469 117.084 122.964 117.844 123.641 118.375C124.318 118.906 125.203 119.172 126.297 119.172C127.432 119.172 128.333 118.906 129 118.375C129.677 117.844 130.161 117.084 130.453 116.094C130.755 115.104 130.906 113.922 130.906 112.547C130.906 110.485 130.562 108.854 129.875 107.656C129.188 106.459 128.005 105.86 126.328 105.86C125.214 105.86 124.312 106.13 123.625 106.672C122.948 107.214 122.453 107.985 122.141 108.985C121.839 109.985 121.688 111.172 121.688 112.547ZM156.469 117.063C156.469 118.302 156.156 119.479 155.531 120.594C154.906 121.698 153.932 122.594 152.609 123.281C151.297 123.969 149.599 124.313 147.516 124.313C146.474 124.313 145.557 124.266 144.766 124.172C143.984 124.078 143.255 123.927 142.578 123.719C141.901 123.5 141.198 123.219 140.469 122.875V117.375C141.708 118 142.958 118.479 144.219 118.813C145.479 119.136 146.62 119.297 147.641 119.297C148.255 119.297 148.755 119.224 149.141 119.078C149.536 118.933 149.828 118.735 150.016 118.485C150.203 118.224 150.297 117.927 150.297 117.594C150.297 117.198 150.156 116.865 149.875 116.594C149.604 116.313 149.167 116.021 148.562 115.719C147.958 115.417 147.161 115.042 146.172 114.594C145.328 114.198 144.562 113.792 143.875 113.375C143.198 112.959 142.615 112.485 142.125 111.953C141.646 111.412 141.276 110.781 141.016 110.063C140.755 109.344 140.625 108.495 140.625 107.516C140.625 106.047 140.984 104.818 141.703 103.828C142.432 102.828 143.443 102.078 144.734 101.578C146.036 101.078 147.536 100.828 149.234 100.828C150.724 100.828 152.062 100.995 153.25 101.328C154.448 101.662 155.521 102.042 156.469 102.469L154.578 107.235C153.599 106.787 152.635 106.433 151.688 106.172C150.74 105.901 149.859 105.766 149.047 105.766C148.516 105.766 148.078 105.834 147.734 105.969C147.401 106.094 147.151 106.266 146.984 106.485C146.828 106.703 146.75 106.953 146.75 107.235C146.75 107.589 146.885 107.906 147.156 108.188C147.438 108.469 147.901 108.776 148.547 109.11C149.203 109.433 150.094 109.854 151.219 110.375C152.333 110.875 153.281 111.417 154.062 112C154.844 112.573 155.438 113.266 155.844 114.078C156.26 114.88 156.469 115.875 156.469 117.063Z" fill="#B7BDCD"/>
<path d="M181.875 124H168.312V101.156H181.875V106.11H174.484V109.703H181.328V114.656H174.484V118.969H181.875V124ZM194.031 109.625L197.969 101.156H204.656L197.141 115.078V124H190.922V115.266L183.406 101.156H190.125L194.031 109.625ZM217.203 124H211.031V106.203H205.453V101.156H222.766V106.203H217.203V124ZM245.609 124H239.406V114.688H232.234V124H226.031V101.156H232.234V109.625H239.406V101.156H245.609V124ZM264.578 124L263.453 119.719H256.031L254.875 124H248.094L255.547 101.063H263.781L271.328 124H264.578ZM262.172 114.656L261.188 110.906C261.083 110.5 260.932 109.922 260.734 109.172C260.536 108.412 260.339 107.63 260.141 106.828C259.953 106.016 259.807 105.349 259.703 104.828C259.609 105.349 259.474 105.995 259.297 106.766C259.13 107.526 258.953 108.281 258.766 109.031C258.589 109.781 258.432 110.406 258.297 110.906L257.312 114.656H262.172ZM295.562 124H287.469L279.125 107.906H278.984C279.036 108.396 279.083 108.985 279.125 109.672C279.167 110.36 279.203 111.063 279.234 111.781C279.266 112.49 279.281 113.13 279.281 113.703V124H273.812V101.156H281.875L290.188 117.031H290.281C290.25 116.531 290.219 115.953 290.188 115.297C290.156 114.63 290.125 113.959 290.094 113.281C290.073 112.604 290.062 112.005 290.062 111.485V101.156H295.562V124Z" fill="#9B0000"/>
<path d="M201.646 20.6467L183.857 2.85725C183.66 2.66064 183.341 2.66219 183.146 2.8607L158.143 28.3544C158.051 28.4479 158 28.5736 158 28.7045V63.7931C158 64.2386 158.539 64.4617 158.854 64.1467L201.646 21.3538C201.842 21.1585 201.842 20.842 201.646 20.6467Z" fill="#9B0000"/>
<path d="M248.884 18.1485L230.602 0.347546C230.405 0.155398 230.089 0.159034 229.897 0.355678L204.891 25.8513C204.798 25.9465 204.746 26.0749 204.748 26.2082L205.229 61.8063C205.235 62.2498 205.773 62.4665 206.085 62.1511L248.891 18.8583C249.086 18.6609 249.083 18.3422 248.884 18.1485Z" fill="#9B0000"/>
<path d="M181.892 47.3536L199.392 29.8536C199.707 29.5386 200.245 29.7617 200.245 30.2071V82.7929C200.245 83.2383 199.707 83.4614 199.392 83.1464L181.892 65.6464C181.798 65.5527 181.745 65.4255 181.745 65.2929V47.7071C181.745 47.5745 181.798 47.4473 181.892 47.3536Z" fill="#9B0000"/>
<path d="M147.156 31.6468L129.355 13.3649C129.16 13.1646 128.839 13.1632 128.642 13.3618L74.8503 67.6467C74.6566 67.8422 74.6573 68.1576 74.8519 68.3522L92.6464 86.1467C92.8417 86.3419 93.1583 86.342 93.3536 86.1467L147.151 32.3491C147.345 32.1557 147.347 31.8427 147.156 31.6468Z" fill="#B7BDCD"/>
<path d="M135.146 50.3538L152.646 32.8538C152.961 32.5388 153.5 32.7619 153.5 33.2074V85.3161C153.5 85.7583 152.968 85.9828 152.651 85.6745L135.151 68.6475C135.055 68.5533 135 68.4241 135 68.2891V50.7074C135 50.5747 135.053 50.4476 135.146 50.3538Z" fill="#B7BDCD"/>
</svg>
