<svg width="1457" height="126" viewBox="0 0 1457 126" fill="none" xmlns="http://www.w3.org/2000/svg">
<rect width="1440" height="126" fill="white"/>
<g clip-path="url(#clip0_110_3567)">
<path d="M0.00121236 53.0652V82.6985V116.435C-0.000590563 129.5 -9.49551 126 23.5306 126H133.335H266.668H400.001H533.335H666.666C666.666 126 666.15 108 658.501 108C637.001 108 566.367 107.929 566.367 107.929C556.582 107.929 548.65 104.704 548.65 100.726C548.65 96.7484 540.718 93.5237 530.933 93.5237H430.884C423.53 93.5237 417.569 91.1003 417.569 88.1112C417.569 85.1218 411.608 82.6985 404.254 82.6985H300.558C287.563 82.6985 277.028 78.4159 277.028 73.1333V25.5652C277.028 20.2825 266.494 16 253.499 16H174.882C161.887 16 151.352 20.2825 151.352 25.5652V33.9348C151.352 39.2175 140.818 43.5 127.823 43.5H23.5306C10.5357 43.5 0.00121236 47.7826 0.00121236 53.0652Z" fill="#C60505"/>
</g>
<g clip-path="url(#clip1_110_3567)">
<path fill-rule="evenodd" clip-rule="evenodd" d="M1440 84.6333V55C1440 49.7174 1440 49.5 1440 43.5H1328.86C1315.83 43.5 1305.27 39.2175 1305.27 33.9348V25.5652C1305.27 20.2825 1294.71 16 1281.68 16H1202.87C1189.84 16 1179.28 20.2825 1179.28 25.5652V73.1333C1179.28 78.4159 1168.72 82.6985 1155.69 82.6985H1051.74C1044.37 82.6985 1038.39 85.1219 1038.39 88.1112C1038.39 91.1004 1032.41 93.5237 1025.04 93.5237H924.741C914.932 93.5237 906.98 96.7484 906.98 100.726C906.98 104.704 899.028 107.929 889.219 107.929L809.501 108.5C804.001 109 805.501 116 803.501 116C801.501 116 798.001 116 798.001 116H794.501C788.169 116 787.533 116 774.501 116L664.501 115C658.001 115 655.145 112.217 655.145 117.5L655.001 116.435C655.001 121.717 647.001 127 678.589 126H788.669H922.334H1056H1189.67H1323.33H1433.41C1446.44 126 1440 131.283 1440 126L1440 84.6333Z" fill="#C60505"/>
</g>
<defs>
<clipPath id="clip0_110_3567">
<rect width="800" height="110" fill="white" transform="translate(0 16)"/>
</clipPath>
<clipPath id="clip1_110_3567">
<rect width="802" height="110" fill="white" transform="matrix(-1 0 0 1 1457 16)"/>
</clipPath>
</defs>
</svg>
