<svg width="42" height="42" viewBox="0 0 42 42" fill="none" xmlns="http://www.w3.org/2000/svg">
<path d="M42 20.6976C42 26.3473 39.7556 31.7657 35.7607 35.7607C31.7657 39.7556 26.3473 42 20.6976 42C15.2083 42 9.94374 39.8194 6.06219 35.9378C2.18063 32.0563 0 26.7917 0 21.3024C0 15.6527 2.24435 10.2343 6.23933 6.23933C10.2343 2.24435 15.6527 0 21.3024 0C26.7917 0 32.0563 2.18063 35.9378 6.06219C39.8194 9.94374 42 15.2083 42 20.6976Z" fill="url(#paint0_linear_35_3518)"/>
<path d="M27.5196 22.9312L28.2924 17.8912H23.4288V14.5732C23.4288 13.1872 24.1092 11.8348 26.2848 11.8348H28.5024V7.55924C27.2022 7.34828 25.8883 7.23317 24.5712 7.21484C20.5728 7.21484 17.952 9.64244 17.952 14.0356V17.8996H13.5V22.9396H17.952V34.8172H23.4288V22.9312H27.5196Z" fill="white"/>
<defs>
<linearGradient id="paint0_linear_35_3518" x1="35.9184" y1="6.0816" x2="6.0732" y2="35.9184" gradientUnits="userSpaceOnUse">
<stop stop-color="#FF0000"/>
<stop offset="1" stop-color="#850000"/>
</linearGradient>
</defs>
</svg>
