<svg width="1427" height="107" viewBox="0 0 1427 107" fill="none" xmlns="http://www.w3.org/2000/svg">
<path d="M0 38.5V106.5H1427V38.5C1427 35.1863 1424.31 32.5 1421 32.5H1294.5C1291.19 32.5 1288.5 29.8137 1288.5 26.5V7.5C1288.5 4.18629 1285.81 1.5 1282.5 1.5H1174C1170.69 1.5 1168 4.18629 1168 7.5V58C1168 61.3137 1165.31 64 1162 64H1033.75C1030.57 64 1028 66.5744 1028 69.75C1028 72.9256 1025.43 75.5 1022.25 75.5H903.5C900.186 75.5 897.5 78.1863 897.5 81.5V84.5C897.5 87.8137 894.814 90.5 891.5 90.5H798.75C796.679 90.5 795 92.1789 795 94.25C795 96.3211 793.321 98 791.25 98H661C658.239 98 656 95.7614 656 93C656 90.2386 653.761 88 651 88H549.5C546.186 88 543.5 85.3137 543.5 82V80C543.5 76.6863 540.814 74 537.5 74H420C417.239 74 415 71.7614 415 69C415 66.2386 412.761 64 410 64H279.5C276.186 64 273.5 61.3137 273.5 58V6C273.5 2.68629 270.814 0 267.5 0H157C153.686 0 151 2.68629 151 6V26.5C151 29.8137 148.314 32.5 145 32.5H6C2.68629 32.5 0 35.1863 0 38.5Z" fill="#C60505"/>
</svg>
