<svg width="1440" height="106" viewBox="0 0 1440 106" fill="none" xmlns="http://www.w3.org/2000/svg">
<g clip-path="url(#clip0_28_3534)">
<path d="M-8 37.0652V66.6985V100.435C-8 105.717 2.53447 110 15.5294 110H125.334H258.666H392H525.334H658.665C658.665 110 658.149 92 650.5 92C629 92 558.366 91.9287 558.366 91.9287C548.581 91.9287 540.649 88.704 540.649 84.7263C540.649 80.7484 532.716 77.5237 522.932 77.5237H422.882C415.529 77.5237 409.568 75.1003 409.568 72.1112C409.568 69.1218 403.606 66.6985 396.253 66.6985H292.556C279.562 66.6985 269.027 62.4159 269.027 57.1333V9.56522C269.027 4.28249 258.492 0 245.498 0H166.881C153.886 0 143.351 4.28249 143.351 9.56522V17.9348C143.351 23.2175 132.817 27.5 119.822 27.5H15.5294C2.53447 27.5 -8 31.7826 -8 37.0652Z" fill="#C60505"/>
</g>
<g clip-path="url(#clip1_28_3534)">
<path fill-rule="evenodd" clip-rule="evenodd" d="M1449 66.6985V37.0652C1449 31.7826 1438.44 27.5 1425.41 27.5H1320.86C1307.83 27.5 1297.27 23.2175 1297.27 17.9348V9.56522C1297.27 4.28249 1286.71 0 1273.68 0H1194.87C1181.84 0 1171.28 4.28249 1171.28 9.56522V57.1333C1171.28 62.4159 1160.72 66.6985 1147.69 66.6985H1043.74C1036.36 66.6985 1030.39 69.1218 1030.39 72.1112C1030.39 75.1003 1024.41 77.5237 1017.04 77.5237H916.741C906.932 77.5237 898.98 80.7484 898.98 84.7263C898.98 88.704 891.028 91.9287 881.218 91.9287L801.5 92.5C796 93 798 99.5 796 99.5C794 99.5 790.5 99.5 790.5 99.5H787C780.669 99.5 780.032 99.5 767 99.5L657.5 100.435C644.473 100.435 647.145 96.2171 647.145 101.5L647 100.435C647 105.717 657.562 110 670.588 110H780.669H914.333H1048H1181.67H1315.33H1425.41C1438.44 110 1449 105.717 1449 100.435V66.6985Z" fill="#C60505"/>
</g>
<defs>
<clipPath id="clip0_28_3534">
<rect width="800" height="110" fill="white" transform="translate(-8)"/>
</clipPath>
<clipPath id="clip1_28_3534">
<rect width="802" height="110" fill="white" transform="matrix(-1 0 0 1 1449 0)"/>
</clipPath>
</defs>
</svg>
