<svg width="1036" height="283" viewBox="0 0 1036 283" fill="none" xmlns="http://www.w3.org/2000/svg">
<path d="M470.747 282.15C465.413 282.15 461.38 280.65 458.647 277.65C455.913 274.584 454.547 270.217 454.547 264.55V260.55H464.947V265.35C464.947 269.884 466.847 272.15 470.647 272.15C472.513 272.15 473.913 271.617 474.847 270.55C475.847 269.417 476.347 267.617 476.347 265.15C476.347 262.217 475.68 259.65 474.347 257.45C473.013 255.184 470.547 252.484 466.947 249.35C462.413 245.35 459.247 241.75 457.447 238.55C455.647 235.284 454.747 231.617 454.747 227.55C454.747 222.017 456.147 217.75 458.947 214.75C461.747 211.684 465.813 210.15 471.147 210.15C476.413 210.15 480.38 211.684 483.047 214.75C485.78 217.75 487.147 222.084 487.147 227.75V230.65H476.747V227.05C476.747 224.65 476.28 222.917 475.347 221.85C474.413 220.717 473.047 220.15 471.247 220.15C467.58 220.15 465.747 222.384 465.747 226.85C465.747 229.384 466.413 231.75 467.747 233.95C469.147 236.15 471.647 238.817 475.247 241.95C479.847 245.95 483.013 249.584 484.747 252.85C486.48 256.117 487.347 259.95 487.347 264.35C487.347 270.084 485.913 274.484 483.047 277.55C480.247 280.617 476.147 282.15 470.747 282.15Z" fill="#3A3A3A"/>
<path d="M493.654 211.15H504.654V281.15H493.654V211.15Z" fill="#3A3A3A"/>
<path d="M512.892 211.15H542.892V221.15H523.892V239.65H538.992V249.65H523.892V271.15H542.892V281.15H512.892V211.15Z" fill="#3A3A3A"/>
<path d="M549.22 211.15H564.92L571.92 261.25H572.12L579.12 211.15H594.82V281.15H584.42V228.15H584.22L576.22 281.15H567.02L559.02 228.15H558.82V281.15H549.22V211.15Z" fill="#3A3A3A"/>
<path d="M603.029 211.15H619.229C624.695 211.15 628.795 212.617 631.529 215.55C634.262 218.484 635.629 222.784 635.629 228.45V235.35C635.629 241.017 634.262 245.317 631.529 248.25C628.795 251.184 624.695 252.65 619.229 252.65H614.029V281.15H603.029V211.15ZM619.229 242.65C621.029 242.65 622.362 242.15 623.229 241.15C624.162 240.15 624.629 238.45 624.629 236.05V227.75C624.629 225.35 624.162 223.65 623.229 222.65C622.362 221.65 621.029 221.15 619.229 221.15H614.029V242.65H619.229Z" fill="#3A3A3A"/>
<path d="M641.603 211.15H657.903C663.569 211.15 667.703 212.484 670.303 215.15C672.903 217.75 674.203 221.784 674.203 227.25V231.55C674.203 238.817 671.803 243.417 667.003 245.35V245.55C669.669 246.35 671.536 247.984 672.603 250.45C673.736 252.917 674.303 256.217 674.303 260.35V272.65C674.303 274.65 674.369 276.284 674.503 277.55C674.636 278.75 674.969 279.95 675.503 281.15H664.303C663.903 280.017 663.636 278.95 663.503 277.95C663.369 276.95 663.303 275.15 663.303 272.55V259.75C663.303 256.55 662.769 254.317 661.703 253.05C660.703 251.784 658.936 251.15 656.403 251.15H652.603V281.15H641.603V211.15ZM656.603 241.15C658.803 241.15 660.436 240.584 661.503 239.45C662.636 238.317 663.203 236.417 663.203 233.75V228.35C663.203 225.817 662.736 223.984 661.803 222.85C660.936 221.717 659.536 221.15 657.603 221.15H652.603V241.15H656.603Z" fill="#3A3A3A"/>
<path d="M681.935 211.15H711.935V221.15H692.935V239.65H708.035V249.65H692.935V271.15H711.935V281.15H681.935V211.15Z" fill="#3A3A3A"/>
<path d="M742.779 211.15H757.679L769.079 281.15H758.079L756.079 267.25V267.45H743.579L741.579 281.15H731.379L742.779 211.15ZM754.779 257.95L749.879 223.35H749.679L744.879 257.95H754.779Z" fill="#3A3A3A"/>
<path d="M774.415 211.15H791.215C796.682 211.15 800.782 212.617 803.515 215.55C806.249 218.484 807.615 222.784 807.615 228.45V263.85C807.615 269.517 806.249 273.817 803.515 276.75C800.782 279.684 796.682 281.15 791.215 281.15H774.415V211.15ZM791.015 271.15C792.815 271.15 794.182 270.617 795.115 269.55C796.115 268.484 796.615 266.75 796.615 264.35V227.95C796.615 225.55 796.115 223.817 795.115 222.75C794.182 221.684 792.815 221.15 791.015 221.15H785.415V271.15H791.015Z" fill="#3A3A3A"/>
<path d="M815.04 211.15H845.04V221.15H826.04V239.65H841.14V249.65H826.04V271.15H845.04V281.15H815.04V211.15Z" fill="#3A3A3A"/>
<path d="M851.368 211.15H862.368V271.15H880.468V281.15H851.368V211.15Z" fill="#3A3A3A"/>
<path d="M894.634 211.15H909.534L920.934 281.15H909.934L907.934 267.25V267.45H895.434L893.434 281.15H883.234L894.634 211.15ZM906.634 257.95L901.734 223.35H901.534L896.734 257.95H906.634Z" fill="#3A3A3A"/>
<path d="M926.271 211.15H940.071L950.771 253.05H950.971V211.15H960.771V281.15H949.471L936.271 230.05H936.071V281.15H926.271V211.15Z" fill="#3A3A3A"/>
<path d="M977.547 221.15H966.047V211.15H1000.05V221.15H988.547V281.15H977.547V221.15Z" fill="#3A3A3A"/>
<path d="M1005.37 211.15H1035.37V221.15H1016.37V239.65H1031.47V249.65H1016.37V271.15H1035.37V281.15H1005.37V211.15Z" fill="#3A3A3A"/>
<path d="M33.0657 145.166C22.3126 145.166 14.1134 142.142 8.46804 136.094C2.82268 129.91 0 121.106 0 109.681V35.4851C0 24.06 2.82268 15.3231 8.46804 9.27452C14.1134 3.09151 22.3126 0 33.0657 0C43.8187 0 52.018 3.09151 57.6633 9.27452C63.3087 15.3231 66.1314 24.06 66.1314 35.4851V47.5823H45.1629V34.0738C45.1629 24.7993 41.3321 20.162 33.6705 20.162C26.009 20.162 22.1782 24.7993 22.1782 34.0738V111.294C22.1782 120.434 26.009 125.004 33.6705 125.004C41.3321 125.004 45.1629 120.434 45.1629 111.294V83.6723H34.0738V63.5103H66.1314V109.681C66.1314 121.106 63.3087 129.91 57.6633 136.094C52.018 142.142 43.8187 145.166 33.0657 145.166Z" fill="#9B0000"/>
<path d="M80.3708 2.0162H113.235C124.66 2.0162 132.994 4.70447 138.236 10.081C143.478 15.3231 146.099 23.4551 146.099 34.477V43.1467C146.099 57.7977 141.26 67.0723 131.582 70.9702V71.3735C136.959 72.9864 140.722 76.2796 142.873 81.2529C145.158 86.2262 146.301 92.8796 146.301 101.213V126.013C146.301 130.045 146.435 133.338 146.704 135.892C146.973 138.311 147.645 140.731 148.72 143.15H126.139C125.332 140.865 124.794 138.715 124.526 136.698C124.257 134.682 124.122 131.053 124.122 125.811V100.004C124.122 93.5517 123.047 89.0488 120.896 86.495C118.88 83.9411 115.318 82.6642 110.211 82.6642H102.549V143.15H80.3708V2.0162ZM110.614 62.5022C115.049 62.5022 118.343 61.3597 120.493 59.0747C122.778 56.7896 123.921 52.9589 123.921 47.5823V36.6948C123.921 31.5871 122.98 27.8908 121.098 25.6057C119.351 23.3207 116.528 22.1782 112.63 22.1782H102.549V62.5022H110.614Z" fill="#9B0000"/>
<path d="M193.947 145.166C183.194 145.166 174.995 142.142 169.35 136.094C163.704 129.91 160.882 121.106 160.882 109.681V2.0162H183.06V111.294C183.06 116.133 184.001 119.628 185.883 121.778C187.899 123.929 190.721 125.004 194.351 125.004C197.98 125.004 200.735 123.929 202.617 121.778C204.633 119.628 205.641 116.133 205.641 111.294V2.0162H227.013V109.681C227.013 121.106 224.19 129.91 218.545 136.094C212.9 142.142 204.7 145.166 193.947 145.166Z" fill="#9B0000"/>
<path d="M242.809 2.0162H275.471C286.493 2.0162 294.759 4.97329 300.27 10.8875C305.781 16.8017 308.537 25.4713 308.537 36.8965V50.8082C308.537 62.2334 305.781 70.903 300.27 76.8172C294.759 82.7314 286.493 85.6885 275.471 85.6885H264.987V143.15H242.809V2.0162ZM275.471 65.5265C279.1 65.5265 281.789 64.5184 283.536 62.5022C285.418 60.486 286.359 57.0585 286.359 52.2196V35.4851C286.359 30.6462 285.418 27.2187 283.536 25.2025C281.789 23.1863 279.1 22.1782 275.471 22.1782H264.987V65.5265H275.471Z" fill="#9B0000"/>
<path d="M352.64 145.166C341.752 145.166 333.419 142.075 327.639 135.892C321.859 129.709 318.969 120.972 318.969 109.681V35.4851C318.969 24.1944 321.859 15.4575 327.639 9.27452C333.419 3.09151 341.752 0 352.64 0C363.527 0 371.861 3.09151 377.641 9.27452C383.42 15.4575 386.31 24.1944 386.31 35.4851V109.681C386.31 120.972 383.42 129.709 377.641 135.892C371.861 142.075 363.527 145.166 352.64 145.166ZM352.64 125.004C360.301 125.004 364.132 120.367 364.132 111.093V34.0738C364.132 24.7993 360.301 20.162 352.64 20.162C344.978 20.162 341.147 24.7993 341.147 34.0738V111.093C341.147 120.367 344.978 125.004 352.64 125.004Z" fill="#9B0000"/>
<path d="M433.6 2.0162H465.254L479.367 103.028H479.771L493.884 2.0162H525.538V143.15H504.57V36.2916H504.167L488.037 143.15H469.488L453.358 36.2916H452.955V143.15H433.6V2.0162Z" fill="#9B0000"/>
<path d="M542.088 2.0162H602.574V22.1782H564.267V59.4779H594.711V79.6399H564.267V122.988H602.574V143.15H542.088V2.0162Z" fill="#9B0000"/>
<path d="M615.333 2.0162H643.157L664.73 86.495H665.133V2.0162H684.892V143.15H662.109L635.495 40.1224H635.092V143.15H615.333V2.0162Z" fill="#9B0000"/>
<path d="M701.376 2.0162H735.248C746.27 2.0162 754.537 4.97329 760.047 10.8875C765.558 16.8017 768.314 25.4713 768.314 36.8965V108.27C768.314 119.695 765.558 128.365 760.047 134.279C754.537 140.193 746.27 143.15 735.248 143.15H701.376V2.0162ZM734.845 122.988C738.474 122.988 741.23 121.913 743.111 119.762C745.128 117.612 746.136 114.117 746.136 109.278V35.8884C746.136 31.0495 745.128 27.5547 743.111 25.4041C741.23 23.2535 738.474 22.1782 734.845 22.1782H723.554V122.988H734.845Z" fill="#9B0000"/>
<path d="M783.284 2.0162H805.462V143.15H783.284V2.0162Z" fill="#9B0000"/>
<path d="M822.072 2.0162H882.558V22.1782H844.251V59.4779H874.695V79.6399H844.251V122.988H882.558V143.15H822.072V2.0162Z" fill="#9B0000"/>
<path d="M912.657 22.1782H889.47V2.0162H958.021V22.1782H934.835V143.15H912.657V22.1782Z" fill="#9B0000"/>
<path d="M976.643 2.0162H1006.68L1029.67 143.15H1007.49L1003.46 115.125V115.528H978.255L974.223 143.15H953.658L976.643 2.0162ZM1000.84 96.3744L990.958 26.6138H990.554L980.877 96.3744H1000.84Z" fill="#9B0000"/>
</svg>
