<svg width="314" height="53" viewBox="0 0 314 53" fill="none" xmlns="http://www.w3.org/2000/svg">
<path d="M208.75 53C207.756 53 207.004 52.7182 206.495 52.1547C205.985 51.5787 205.73 50.7584 205.73 49.694V48.9426H207.669V49.8442C207.669 50.6958 208.023 51.1216 208.732 51.1216C209.079 51.1216 209.34 51.0214 209.514 50.821C209.701 50.6081 209.794 50.27 209.794 49.8067C209.794 49.2557 209.67 48.7735 209.421 48.3603C209.173 47.9345 208.713 47.4273 208.042 46.8387C207.197 46.0874 206.606 45.4111 206.271 44.81C205.935 44.1964 205.768 43.5077 205.768 42.7438C205.768 41.7044 206.029 40.9029 206.551 40.3394C207.072 39.7633 207.831 39.4753 208.825 39.4753C209.806 39.4753 210.546 39.7633 211.043 40.3394C211.552 40.9029 211.807 41.7169 211.807 42.7813V43.3261H209.869V42.6498C209.869 42.199 209.782 41.8734 209.608 41.6731C209.434 41.4602 209.179 41.3537 208.843 41.3537C208.16 41.3537 207.818 41.7732 207.818 42.6123C207.818 43.0881 207.942 43.5327 208.191 43.946C208.452 44.3592 208.918 44.8601 209.589 45.4487C210.446 46.2001 211.037 46.8826 211.36 47.4962C211.683 48.1098 211.845 48.8299 211.845 49.6564C211.845 50.7334 211.577 51.5599 211.043 52.1359C210.521 52.712 209.757 53 208.75 53Z" fill="#3A3A3A"/>
<path d="M213.02 39.6631H215.071V52.8122H213.02V39.6631Z" fill="#3A3A3A"/>
<path d="M216.606 39.6631H222.199V41.5416H218.657V45.0167H221.472V46.8951H218.657V50.9337H222.199V52.8122H216.606V39.6631Z" fill="#3A3A3A"/>
<path d="M223.378 39.6631H226.305L227.61 49.0741H227.647L228.952 39.6631H231.878V52.8122H229.94V42.8565H229.902L228.411 52.8122H226.696L225.205 42.8565H225.168V52.8122H223.378V39.6631Z" fill="#3A3A3A"/>
<path d="M233.408 39.6631H236.428C237.447 39.6631 238.211 39.9386 238.721 40.4896C239.23 41.0406 239.485 41.8484 239.485 42.9128V44.2089C239.485 45.2734 239.23 46.0811 238.721 46.6321C238.211 47.1831 237.447 47.4586 236.428 47.4586H235.459V52.8122H233.408V39.6631ZM236.428 45.5802C236.764 45.5802 237.012 45.4863 237.174 45.2984C237.348 45.1106 237.435 44.7912 237.435 44.3404V42.7813C237.435 42.3305 237.348 42.0112 237.174 41.8233C237.012 41.6355 236.764 41.5416 236.428 41.5416H235.459V45.5802H236.428Z" fill="#3A3A3A"/>
<path d="M240.599 39.6631H243.637C244.694 39.6631 245.464 39.9136 245.949 40.4145C246.433 40.9029 246.676 41.6605 246.676 42.6874V43.4951C246.676 44.8601 246.228 45.7242 245.334 46.0874V46.1249C245.831 46.2752 246.179 46.582 246.377 47.0454C246.589 47.5087 246.694 48.1286 246.694 48.905V51.2155C246.694 51.5912 246.707 51.898 246.732 52.1359C246.756 52.3613 246.819 52.5867 246.918 52.8122H244.83C244.756 52.5993 244.706 52.3989 244.681 52.2111C244.656 52.0232 244.644 51.6851 244.644 51.1967V48.7923C244.644 48.1912 244.544 47.7717 244.346 47.5338C244.159 47.2958 243.83 47.1769 243.358 47.1769H242.649V52.8122H240.599V39.6631ZM243.395 45.2984C243.805 45.2984 244.11 45.192 244.308 44.9791C244.52 44.7662 244.625 44.4093 244.625 43.9084V42.894C244.625 42.4182 244.538 42.0738 244.364 41.8609C244.203 41.648 243.942 41.5416 243.581 41.5416H242.649V45.2984H243.395Z" fill="#3A3A3A"/>
<path d="M248.117 39.6631H253.709V41.5416H250.167V45.0167H252.982V46.8951H250.167V50.9337H253.709V52.8122H248.117V39.6631Z" fill="#3A3A3A"/>
<path d="M259.459 39.6631H262.236L264.361 52.8122H262.311L261.938 50.2011V50.2387H259.608L259.235 52.8122H257.334L259.459 39.6631ZM261.696 48.4542L260.782 41.9548H260.745L259.85 48.4542H261.696Z" fill="#3A3A3A"/>
<path d="M265.356 39.6631H268.488C269.507 39.6631 270.271 39.9386 270.78 40.4896C271.29 41.0406 271.545 41.8484 271.545 42.9128V49.5625C271.545 50.6269 271.29 51.4346 270.78 51.9856C270.271 52.5367 269.507 52.8122 268.488 52.8122H265.356V39.6631ZM268.45 50.9337C268.786 50.9337 269.041 50.8335 269.215 50.6332C269.401 50.4328 269.494 50.1072 269.494 49.6564V42.8189C269.494 42.3681 269.401 42.0425 269.215 41.8421C269.041 41.6417 268.786 41.5416 268.45 41.5416H267.406V50.9337H268.45Z" fill="#3A3A3A"/>
<path d="M272.929 39.6631H278.521V41.5416H274.979V45.0167H277.794V46.8951H274.979V50.9337H278.521V52.8122H272.929V39.6631Z" fill="#3A3A3A"/>
<path d="M279.7 39.6631H281.751V50.9337H285.125V52.8122H279.7V39.6631Z" fill="#3A3A3A"/>
<path d="M287.765 39.6631H290.543L292.668 52.8122H290.618L290.245 50.2011V50.2387H287.915L287.542 52.8122H285.64L287.765 39.6631ZM290.002 48.4542L289.089 41.9548H289.052L288.157 48.4542H290.002Z" fill="#3A3A3A"/>
<path d="M293.663 39.6631H296.235L298.23 47.5338H298.267V39.6631H300.094V52.8122H297.987L295.527 43.2134H295.49V52.8122H293.663V39.6631Z" fill="#3A3A3A"/>
<path d="M303.221 41.5416H301.077V39.6631H307.415V41.5416H305.271V52.8122H303.221V41.5416Z" fill="#3A3A3A"/>
<path d="M308.408 39.6631H314V41.5416H310.458V45.0167H313.273V46.8951H310.458V50.9337H314V52.8122H308.408V39.6631Z" fill="#3A3A3A"/>
<path d="M127.164 27.2685C125.159 27.2685 123.631 26.7004 122.578 25.5642C121.526 24.4028 121 22.749 121 20.6029V6.66564C121 4.51951 121.526 2.87834 122.578 1.74216C123.631 0.580719 125.159 0 127.164 0C129.168 0 130.696 0.580719 131.749 1.74216C132.801 2.87834 133.327 4.51951 133.327 6.66564V8.93801H129.419V6.40053C129.419 4.65837 128.705 3.7873 127.276 3.7873C125.848 3.7873 125.134 4.65837 125.134 6.40053V20.9059C125.134 22.6228 125.848 23.4812 127.276 23.4812C128.705 23.4812 129.419 22.6228 129.419 20.9059V15.7173H127.352V11.93H133.327V20.6029C133.327 22.749 132.801 24.4028 131.749 25.5642C130.696 26.7004 129.168 27.2685 127.164 27.2685Z" fill="#9B0000"/>
<path d="M135.982 0.378729H142.108C144.237 0.378729 145.791 0.883702 146.768 1.89365C147.745 2.87834 148.234 4.40589 148.234 6.47627V8.10481C148.234 10.8569 147.332 12.5991 145.528 13.3313V13.407C146.53 13.71 147.232 14.3286 147.632 15.2628C148.058 16.197 148.271 17.4468 148.271 19.0122V23.6706C148.271 24.4281 148.296 25.0466 148.347 25.5264C148.397 25.9808 148.522 26.4353 148.722 26.8898H144.513C144.363 26.4606 144.262 26.0566 144.212 25.6779C144.162 25.2991 144.137 24.6174 144.137 23.6327V18.785C144.137 17.573 143.937 16.7272 143.536 16.2475C143.16 15.7678 142.496 15.5279 141.544 15.5279H140.116V26.8898H135.982V0.378729ZM141.619 11.7406C142.446 11.7406 143.06 11.526 143.461 11.0968C143.887 10.6675 144.1 9.94796 144.1 8.93801V6.89288C144.1 5.93343 143.924 5.23909 143.573 4.80987C143.248 4.38064 142.722 4.16602 141.995 4.16602H140.116V11.7406H141.619Z" fill="#9B0000"/>
<path d="M157.153 27.2685C155.149 27.2685 153.62 26.7004 152.568 25.5642C151.516 24.4028 150.989 22.749 150.989 20.6029V0.378729H155.124V20.9059C155.124 21.8148 155.299 22.4713 155.65 22.8753C156.026 23.2792 156.552 23.4812 157.228 23.4812C157.905 23.4812 158.418 23.2792 158.769 22.8753C159.145 22.4713 159.333 21.8148 159.333 20.9059V0.378729H163.317V20.6029C163.317 22.749 162.791 24.4028 161.738 25.5642C160.686 26.7004 159.157 27.2685 157.153 27.2685Z" fill="#9B0000"/>
<path d="M166.261 0.378729H172.35C174.404 0.378729 175.945 0.934199 176.972 2.04514C178 3.15608 178.513 4.78462 178.513 6.93075V9.54398C178.513 11.6901 178 13.3187 176.972 14.4296C175.945 15.5405 174.404 16.096 172.35 16.096H170.395V26.8898H166.261V0.378729ZM172.35 12.3087C173.026 12.3087 173.527 12.1193 173.853 11.7406C174.204 11.3619 174.379 10.718 174.379 9.80909V6.66564C174.379 5.75669 174.204 5.11285 173.853 4.73412C173.527 4.35539 173.026 4.16602 172.35 4.16602H170.395V12.3087H172.35Z" fill="#9B0000"/>
<path d="M186.734 27.2685C184.705 27.2685 183.151 26.6878 182.074 25.5264C180.997 24.3649 180.458 22.7238 180.458 20.6029V6.66564C180.458 4.54475 180.997 2.90359 182.074 1.74216C183.151 0.580719 184.705 0 186.734 0C188.764 0 190.317 0.580719 191.395 1.74216C192.472 2.90359 193.011 4.54475 193.011 6.66564V20.6029C193.011 22.7238 192.472 24.3649 191.395 25.5264C190.317 26.6878 188.764 27.2685 186.734 27.2685ZM186.734 23.4812C188.162 23.4812 188.877 22.6101 188.877 20.868V6.40053C188.877 4.65837 188.162 3.7873 186.734 3.7873C185.306 3.7873 184.592 4.65837 184.592 6.40053V20.868C184.592 22.6101 185.306 23.4812 186.734 23.4812Z" fill="#9B0000"/>
<path d="M201.826 0.378729H207.726L210.357 19.3531H210.432L213.063 0.378729H218.964V26.8898H215.055V6.81713H214.98L211.973 26.8898H208.516L205.509 6.81713H205.434V26.8898H201.826V0.378729Z" fill="#9B0000"/>
<path d="M222.049 0.378729H233.324V4.16602H226.183V11.1725H231.858V14.9598H226.183V23.1025H233.324V26.8898H222.049V0.378729Z" fill="#9B0000"/>
<path d="M235.702 0.378729H240.889L244.91 16.2475H244.985V0.378729H248.668V26.8898H244.421L239.46 7.53672H239.385V26.8898H235.702V0.378729Z" fill="#9B0000"/>
<path d="M251.741 0.378729H258.055C260.11 0.378729 261.65 0.934199 262.678 2.04514C263.705 3.15608 264.219 4.78462 264.219 6.93075V20.3378C264.219 22.4839 263.705 24.1124 262.678 25.2234C261.65 26.3343 260.11 26.8898 258.055 26.8898H251.741V0.378729ZM257.98 23.1025C258.656 23.1025 259.17 22.9005 259.521 22.4965C259.897 22.0926 260.084 21.4361 260.084 20.5271V6.74139C260.084 5.83243 259.897 5.17597 259.521 4.77199C259.17 4.36801 258.656 4.16602 257.98 4.16602H255.875V23.1025H257.98Z" fill="#9B0000"/>
<path d="M267.009 0.378729H271.143V26.8898H267.009V0.378729Z" fill="#9B0000"/>
<path d="M274.24 0.378729H285.515V4.16602H278.374V11.1725H284.049V14.9598H278.374V23.1025H285.515V26.8898H274.24V0.378729Z" fill="#9B0000"/>
<path d="M291.125 4.16602H286.803V0.378729H299.581V4.16602H295.259V26.8898H291.125V4.16602Z" fill="#9B0000"/>
<path d="M303.052 0.378729H308.652L312.937 26.8898H308.803L308.051 21.6255V21.7012H303.353L302.601 26.8898H298.768L303.052 0.378729ZM307.562 18.1033L305.721 4.99923H305.646L303.842 18.1033H307.562Z" fill="#9B0000"/>
<path d="M42.7971 18.6431H24.8567C21.4265 18.6431 18.6419 21.4277 18.6419 24.8579C18.6419 28.2881 21.4265 31.0727 24.8567 31.0727H35.6133C33.4756 34.7892 29.4617 37.2875 24.8567 37.2875C20.2517 37.2875 16.244 34.7892 14.1001 31.0727C13.0306 29.2461 12.4283 27.127 12.4283 24.8579C12.4283 22.5889 13.0368 20.471 14.1001 18.6431C16.244 14.9266 20.2579 12.4283 24.8567 12.4283H53.5599L49.9748 6.21974L46.3835 0H24.8579C15.6603 0 7.62504 4.99661 3.32488 12.4283C2.21204 14.3479 1.34829 16.436 0.783199 18.6431C0.273872 20.6321 0 22.714 0 24.8579C0 27.0018 0.273872 29.0837 0.783199 31.0727C3.54175 41.7983 13.2735 49.7158 24.8567 49.7158H24.8629C33.8672 49.7158 41.7537 44.9249 46.1158 37.7534L46.4207 37.2255L49.9748 31.0801V31.0739L57.1525 18.6518V18.6456H42.7971V18.6431Z" fill="#C60505"/>
<path d="M75.0947 0L74.5718 0.900927L67.917 12.4283L64.3307 18.6431L62.0691 22.5517V22.5579L60.7394 24.8629L57.1542 18.6493L49.9766 31.0715V31.0777L53.5617 37.2912L57.1542 43.506L60.7394 49.7133L67.917 37.2912V37.285L71.5022 31.0715L74.5718 25.7576V49.7133H87.0013V4.232V0H75.0947Z" fill="#9B0000"/>
<path d="M46.3827 0H34.4922L40.6785 12.4283H53.5591L46.3827 0Z" fill="#9B0000"/>
<path d="M121 47H198" stroke="#2D2D2D" stroke-width="3" stroke-miterlimit="10"/>
</svg>
