<?xml version="1.0" encoding="UTF-8"?>
<svg id="Capa_2" data-name="Capa 2" xmlns="http://www.w3.org/2000/svg" viewBox="0 0 702.04 401.16">
  <defs>
    <style>
      .cls-1 {
        fill: #9b0000;
      }

      .cls-2 {
        fill: #c60505;
      }
    </style>
  </defs>
  <g id="Capa_1-2" data-name="Capa 1">
    <g>
      <path class="cls-2" d="m345.35,150.44h-144.77c-27.68,0-50.15,22.47-50.15,50.15s22.47,50.15,50.15,50.15h86.8c-17.25,29.99-49.64,50.15-86.8,50.15s-69.5-20.16-86.8-50.15c-8.63-14.74-13.49-31.84-13.49-50.15s4.91-35.4,13.49-50.15c17.3-29.99,49.69-50.15,86.8-50.15h231.62l-28.93-50.1L374.29,0h-173.7C126.37,0,61.53,40.32,26.83,100.29c-8.98,15.49-15.95,32.34-20.51,50.15-4.11,16.05-6.32,32.85-6.32,50.15s2.21,34.1,6.32,50.15c22.26,86.55,100.79,150.44,194.26,150.44h.05c72.66,0,136.3-38.66,171.5-96.53l2.46-4.26,28.68-49.59v-.05l57.92-100.24v-.05h-115.84Z"/>
      <polygon class="cls-1" points="605.96 0 601.74 7.27 548.04 100.29 519.1 150.44 500.85 181.98 500.85 182.03 490.12 200.63 461.19 150.49 403.27 250.73 403.27 250.78 432.2 300.92 461.19 351.07 490.12 401.16 548.04 300.92 548.04 300.87 576.97 250.73 601.74 207.85 601.74 401.16 702.04 401.16 702.04 34.15 702.04 0 605.96 0"/>
    </g>
    <polygon class="cls-1" points="374.29 0 278.34 0 328.26 100.29 432.2 100.29 374.29 0"/>
  </g>
</svg>