<svg width="180" height="44" viewBox="0 0 180 44" fill="none" xmlns="http://www.w3.org/2000/svg">
<path d="M13.9259 10.508H8.40389V13.126H10.6919V16.25C10.4279 16.36 9.81189 16.448 9.06389 16.448C6.31389 16.448 4.37789 14.666 4.37789 11.586C4.37789 8.352 6.51189 6.79 9.30589 6.79C10.9339 6.79 11.9239 7.054 12.7379 7.428L13.4419 4.722C12.7159 4.392 11.2419 4.018 9.32789 4.018C4.46589 4.018 0.879891 6.834 0.857891 11.762C0.857891 13.94 1.60589 15.876 2.94789 17.174C4.31189 18.472 6.26989 19.154 8.97589 19.154C10.9339 19.154 12.8919 18.67 13.9259 18.318V10.508ZM16.536 19H19.858V13.17H20.848C22.234 13.192 22.872 13.676 23.29 15.546C23.708 17.372 24.082 18.56 24.302 19H27.734C27.448 18.428 27.008 16.492 26.546 14.798C26.172 13.434 25.6 12.466 24.566 12.048V11.982C25.842 11.52 27.184 10.222 27.184 8.352C27.184 6.988 26.7 5.932 25.798 5.228C24.742 4.392 23.202 4.062 21.002 4.062C19.198 4.062 17.614 4.194 16.536 4.37V19ZM19.858 6.68C20.1 6.614 20.562 6.57 21.376 6.57C22.916 6.57 23.84 7.274 23.84 8.616C23.84 9.914 22.85 10.75 21.178 10.75H19.858V6.68ZM29.4696 4.172V12.444C29.4696 17.152 31.6476 19.242 35.3876 19.242C39.2596 19.242 41.5696 17.064 41.5696 12.488V4.172H38.2256V12.686C38.2256 15.326 37.2576 16.558 35.4976 16.558C33.8036 16.558 32.8136 15.26 32.8136 12.686V4.172H29.4696ZM44.4657 19H47.7877V13.676C48.0957 13.742 48.4917 13.764 48.9317 13.764C50.9117 13.764 52.6057 13.258 53.7497 12.202C54.6517 11.388 55.1137 10.134 55.1137 8.682C55.1137 7.23 54.4977 5.998 53.5297 5.25C52.5397 4.458 51.0657 4.062 48.9977 4.062C46.9517 4.062 45.4997 4.194 44.4657 4.37V19ZM47.7877 6.724C48.0297 6.658 48.4917 6.614 49.1517 6.614C50.8457 6.614 51.7917 7.428 51.7917 8.792C51.7917 10.288 50.6917 11.19 48.9097 11.19C48.4037 11.19 48.0737 11.168 47.7877 11.102V6.724ZM63.7829 3.908C59.4269 3.908 56.5669 7.23 56.5669 11.674C56.5669 15.92 59.1629 19.242 63.5409 19.242C67.8969 19.242 70.8229 16.316 70.8229 11.432C70.8229 7.318 68.3369 3.908 63.7829 3.908ZM63.7169 6.57C66.0269 6.57 67.2809 8.858 67.2809 11.542C67.2809 14.424 65.9829 16.58 63.7169 16.58C61.4729 16.58 60.1089 14.534 60.1089 11.608C60.1089 8.726 61.4289 6.57 63.7169 6.57ZM90.2477 19H93.5037L92.7117 4.172H88.3117L86.7497 9.1C86.2437 10.75 85.7377 12.708 85.3417 14.424H85.2537C84.9237 12.686 84.4837 10.838 83.9997 9.122L82.5477 4.172H78.0817L77.1357 19H80.2377L80.5237 13.368C80.6117 11.52 80.6997 9.232 80.7657 7.23H80.8097C81.1837 9.166 81.6677 11.278 82.1517 13.038L83.7357 18.758H86.3537L88.1577 12.972C88.7297 11.234 89.3457 9.122 89.8297 7.23H89.8737C89.8737 9.386 89.9397 11.542 90.0057 13.324L90.2477 19ZM104.893 10.002H99.4371V6.922H105.223V4.172H96.0931V19H105.531V16.25H99.4371V12.73H104.893V10.002ZM110.903 19V14.534C110.903 12.114 110.859 10.024 110.749 8.044H110.837C111.541 9.782 112.531 11.696 113.411 13.28L116.579 19H120.099V4.172H117.019V8.484C117.019 10.728 117.085 12.73 117.283 14.688H117.239C116.557 13.016 115.699 11.168 114.819 9.606L111.739 4.172H107.823V19H110.903ZM123.013 18.934C123.827 19.044 125.081 19.154 126.819 19.154C129.723 19.154 132.121 18.538 133.683 17.24C135.091 16.03 136.125 14.072 136.125 11.234C136.125 8.616 135.157 6.79 133.617 5.646C132.209 4.59 130.361 4.062 127.523 4.062C125.851 4.062 124.245 4.194 123.013 4.392V18.934ZM126.357 6.768C126.643 6.702 127.149 6.636 127.875 6.636C130.779 6.636 132.583 8.264 132.583 11.344C132.583 14.886 130.581 16.558 127.523 16.536C127.127 16.536 126.643 16.536 126.357 16.47V6.768ZM138.353 4.172V19H141.697V4.172H138.353ZM153.426 10.002H147.97V6.922H153.756V4.172H144.626V19H154.064V16.25H147.97V12.73H153.426V10.002ZM159.346 19H162.69V6.988H166.738V4.172H155.342V6.988H159.346V19ZM174.627 15.194L175.771 19H179.401L174.781 4.172H170.381L165.871 19H169.325L170.381 15.194H174.627ZM170.865 12.686L171.745 9.54C171.987 8.682 172.207 7.56 172.427 6.68H172.471C172.691 7.56 172.955 8.66 173.219 9.54L174.143 12.686H170.865Z" fill="#C60505"/>
<path d="M0.726688 38.472C1.30269 38.856 2.43869 39.176 3.47869 39.176C6.02269 39.176 7.23869 37.72 7.23869 36.056C7.23869 34.472 6.32669 33.592 4.50269 32.888C3.01469 32.312 2.35869 31.816 2.35869 30.808C2.35869 30.072 2.91869 29.192 4.39069 29.192C5.36669 29.192 6.08669 29.496 6.42269 29.704L6.80669 28.568C6.34269 28.296 5.52669 28.04 4.43869 28.04C2.34269 28.04 0.950688 29.288 0.950688 30.968C0.950688 32.472 2.03869 33.4 3.79869 34.04C5.25469 34.584 5.83069 35.176 5.83069 36.168C5.83069 37.256 4.99869 38.008 3.57469 38.008C2.61469 38.008 1.71869 37.704 1.09469 37.304L0.726688 38.472ZM10.5213 39V31.256H9.11331V39H10.5213ZM9.81731 28.2C9.28931 28.2 8.93731 28.6 8.93731 29.08C8.93731 29.56 9.27331 29.944 9.78531 29.944C10.3453 29.944 10.6813 29.56 10.6813 29.08C10.6813 28.584 10.3293 28.2 9.81731 28.2ZM19.0873 35.384C19.1193 35.224 19.1353 35.016 19.1353 34.728C19.1353 33.304 18.4793 31.096 15.9353 31.096C13.6793 31.096 12.3033 32.92 12.3033 35.256C12.3033 37.592 13.7273 39.176 16.1113 39.176C17.3433 39.176 18.2073 38.904 18.7033 38.68L18.4473 37.672C17.9353 37.896 17.3113 38.072 16.3033 38.072C14.8793 38.072 13.6793 37.288 13.6473 35.384H19.0873ZM13.6633 34.376C13.7753 33.4 14.3833 32.104 15.8233 32.104C17.4073 32.104 17.7913 33.496 17.7753 34.376H13.6633ZM20.8789 39H22.2549V34.344C22.2549 34.104 22.2869 33.848 22.3669 33.656C22.5909 32.952 23.2469 32.248 24.1109 32.248C25.1829 32.248 25.7269 33.128 25.7269 34.36V39H27.1029V34.216C27.1029 33.96 27.1509 33.72 27.2149 33.512C27.4709 32.84 28.0789 32.248 28.8949 32.248C30.0149 32.248 30.5749 33.128 30.5749 34.632V39H31.9509V34.456C31.9509 31.768 30.4309 31.096 29.3909 31.096C28.6549 31.096 28.1589 31.288 27.6949 31.64C27.3749 31.88 27.0549 32.2 26.8149 32.648H26.7829C26.4469 31.736 25.6469 31.096 24.6069 31.096C23.3109 31.096 22.5909 31.784 22.1589 32.52H22.1109L22.0469 31.256H20.8149C20.8469 31.896 20.8789 32.536 20.8789 33.352V39ZM34.2227 42.168H35.6147V37.96H35.6467C36.1107 38.728 37.0067 39.176 38.0307 39.176C39.8547 39.176 41.5667 37.8 41.5667 35.016C41.5667 32.68 40.1587 31.096 38.2707 31.096C37.0067 31.096 36.0787 31.64 35.5187 32.584H35.4867L35.4067 31.256H34.1587C34.1907 31.992 34.2227 32.792 34.2227 33.784V42.168ZM35.6147 34.504C35.6147 34.328 35.6627 34.12 35.7107 33.944C35.9667 32.888 36.8787 32.216 37.8387 32.216C39.3267 32.216 40.1427 33.544 40.1427 35.08C40.1427 36.856 39.2787 38.072 37.7907 38.072C36.7827 38.072 35.9347 37.4 35.6787 36.424C35.6307 36.248 35.6147 36.056 35.6147 35.848V34.504ZM43.3321 39H44.7401V34.872C44.7401 34.648 44.7561 34.408 44.7881 34.216C44.9801 33.16 45.6841 32.424 46.6761 32.424C46.8681 32.424 47.0121 32.424 47.1561 32.456V31.128C47.0281 31.112 46.9161 31.096 46.7721 31.096C45.8281 31.096 44.9641 31.752 44.6121 32.792H44.5641L44.5001 31.256H43.2681C43.3161 31.976 43.3321 32.76 43.3321 33.672V39ZM54.6342 35.384C54.6662 35.224 54.6822 35.016 54.6822 34.728C54.6822 33.304 54.0262 31.096 51.4822 31.096C49.2262 31.096 47.8502 32.92 47.8502 35.256C47.8502 37.592 49.2742 39.176 51.6582 39.176C52.8902 39.176 53.7542 38.904 54.2502 38.68L53.9942 37.672C53.4822 37.896 52.8582 38.072 51.8502 38.072C50.4262 38.072 49.2262 37.288 49.1942 35.384H54.6342ZM49.2102 34.376C49.3222 33.4 49.9302 32.104 51.3702 32.104C52.9542 32.104 53.3382 33.496 53.3222 34.376H49.2102ZM65.2564 34.248C65.2564 32.712 64.6804 31.096 62.3124 31.096C61.3364 31.096 60.3924 31.368 59.7524 31.768L60.0724 32.712C60.6164 32.344 61.3684 32.136 62.1044 32.136C63.6884 32.12 63.8644 33.288 63.8644 33.912V34.072C60.8724 34.056 59.2084 35.08 59.2084 36.952C59.2084 38.072 60.0084 39.176 61.5764 39.176C62.6804 39.176 63.5124 38.632 63.9444 38.024H63.9924L64.1044 39H65.3684C65.2884 38.472 65.2564 37.816 65.2564 37.144V34.248ZM63.8964 36.392C63.8964 36.52 63.8804 36.68 63.8324 36.84C63.6084 37.496 62.9524 38.136 61.9284 38.136C61.2244 38.136 60.6164 37.72 60.6164 36.792C60.6164 35.288 62.3604 35.016 63.8964 35.048V36.392ZM72.8152 27.64V32.264H72.7832C72.4312 31.656 71.6472 31.096 70.4472 31.096C68.5752 31.096 66.9592 32.664 66.9752 35.24C66.9752 37.592 68.4312 39.176 70.3032 39.176C71.5672 39.176 72.4952 38.52 72.9112 37.656H72.9592L73.0232 39H74.2712C74.2392 38.472 74.2072 37.688 74.2072 37V27.64H72.8152ZM72.8152 35.752C72.8152 35.976 72.7992 36.168 72.7512 36.36C72.4952 37.4 71.6312 38.04 70.6872 38.04C69.1832 38.04 68.3992 36.744 68.3992 35.176C68.3992 33.48 69.2632 32.2 70.7192 32.2C71.7752 32.2 72.5432 32.936 72.7512 33.816C72.7992 33.992 72.8152 34.232 72.8152 34.408V35.752ZM82.7904 35.384C82.8224 35.224 82.8384 35.016 82.8384 34.728C82.8384 33.304 82.1824 31.096 79.6384 31.096C77.3824 31.096 76.0064 32.92 76.0064 35.256C76.0064 37.592 77.4304 39.176 79.8144 39.176C81.0464 39.176 81.9104 38.904 82.4064 38.68L82.1504 37.672C81.6384 37.896 81.0144 38.072 80.0064 38.072C78.5824 38.072 77.3824 37.288 77.3504 35.384H82.7904ZM77.3664 34.376C77.4784 33.4 78.0864 32.104 79.5264 32.104C81.1104 32.104 81.4944 33.496 81.4784 34.376H77.3664ZM84.5821 39H85.9901V27.64H84.5821V39ZM93.8033 34.248C93.8033 32.712 93.2273 31.096 90.8593 31.096C89.8833 31.096 88.9393 31.368 88.2993 31.768L88.6193 32.712C89.1633 32.344 89.9153 32.136 90.6513 32.136C92.2353 32.12 92.4113 33.288 92.4113 33.912V34.072C89.4193 34.056 87.7553 35.08 87.7553 36.952C87.7553 38.072 88.5553 39.176 90.1233 39.176C91.2273 39.176 92.0593 38.632 92.4913 38.024H92.5393L92.6513 39H93.9153C93.8353 38.472 93.8033 37.816 93.8033 37.144V34.248ZM92.4433 36.392C92.4433 36.52 92.4273 36.68 92.3793 36.84C92.1553 37.496 91.4993 38.136 90.4753 38.136C89.7713 38.136 89.1633 37.72 89.1633 36.792C89.1633 35.288 90.9073 35.016 92.4433 35.048V36.392ZM96.0821 39H97.4901V34.344C97.4901 34.104 97.5221 33.864 97.5861 33.688C97.8421 32.904 98.5621 32.248 99.4741 32.248C100.802 32.248 101.266 33.288 101.266 34.536V39H102.674V34.392C102.674 31.736 101.01 31.096 99.9381 31.096C98.6581 31.096 97.7621 31.816 97.3781 32.536H97.3461L97.2661 31.256H96.0181C96.0661 31.896 96.0821 32.536 96.0821 33.352V39ZM105.215 29.816V31.256H104.015V32.328H105.215V36.552C105.215 37.464 105.375 38.152 105.759 38.584C106.095 38.952 106.623 39.176 107.279 39.176C107.823 39.176 108.255 39.08 108.527 38.984L108.463 37.912C108.255 37.976 108.031 38.008 107.647 38.008C106.863 38.008 106.591 37.464 106.591 36.504V32.328H108.607V31.256H106.591V29.4L105.215 29.816ZM116.322 35.384C116.354 35.224 116.37 35.016 116.37 34.728C116.37 33.304 115.714 31.096 113.17 31.096C110.914 31.096 109.538 32.92 109.538 35.256C109.538 37.592 110.962 39.176 113.346 39.176C114.578 39.176 115.442 38.904 115.938 38.68L115.682 37.672C115.17 37.896 114.546 38.072 113.538 38.072C112.114 38.072 110.914 37.288 110.882 35.384H116.322ZM110.898 34.376C111.01 33.4 111.618 32.104 113.058 32.104C114.642 32.104 115.026 33.496 115.01 34.376H110.898Z" fill="#9B0000"/>
</svg>
