<svg width="231" height="120" viewBox="0 0 231 120" fill="none" xmlns="http://www.w3.org/2000/svg">
<path d="M98.0155 1.34881C98.0155 1.34881 107.587 20.0128 108.431 21.9774C109.275 23.942 57.455 13.2769 60.7063 43.5882C63.9573 73.9 93.7941 63.3749 97.1712 57.481C98.6056 54.9778 99.3042 53.8668 99.6327 53.417C98.1343 53.455 88.9825 53.6682 81.1269 53.4114C68.4607 52.9973 69.305 32.7367 80.4237 32.6425C93.3738 32.5328 135.875 32.6426 135.875 32.6426C135.875 32.6426 124.797 56.9196 113.216 70.3913C104.289 80.7756 92.3736 85.3826 78.8752 84.5648C56.5448 83.2121 40.3125 64.1854 40.3125 41.6236C40.3125 26.3276 48.073 15.8893 59.4528 7.80408C70.8285 -0.277666 98.0155 1.34881 98.0155 1.34881Z" fill="#C60505" stroke="#C60505"/>
<path d="M118.151 1H98.2031L108.672 22.0638H130.317L118.151 1Z" fill="#9B0000" stroke="#9B0000"/>
<path d="M142.481 42.986L136.114 32.5249L124.797 54.0127L142.622 84.8306L166.247 43.8343V84.8306H186.901V1H166.672L142.481 42.986Z" fill="#9B0000" stroke="#9B0000"/>
<path d="M8.57844 106.261H16.0316V118.68C14.9008 119.125 13.7374 119.457 12.5415 119.674C11.3563 119.891 10.1495 120 8.92089 120C6.95296 120 5.30576 119.499 3.97929 118.5C2.66378 117.49 1.66891 116.066 0.994775 114.23C0.33159 112.394 0 110.216 0 107.695C0 105.207 0.375104 103.056 1.12532 101.241C1.88638 99.4157 2.99537 98.0037 4.45228 97.0042C5.90919 96.0048 7.68684 95.5051 9.78532 95.5051C10.9377 95.5051 12.0141 95.646 13.0144 95.9288C14.0146 96.2004 14.9116 96.5583 15.7054 97.0042L14.368 100.785C13.6831 100.35 12.9709 100.019 12.2316 99.7912C11.5031 99.5631 10.7421 99.4491 9.94833 99.4491C8.80678 99.4491 7.84994 99.7745 7.07802 100.426C6.3061 101.068 5.72437 102.013 5.33294 103.262C4.9415 104.501 4.74584 106.022 4.74584 107.826C4.74584 109.488 4.90347 110.938 5.21882 112.177C5.54494 113.404 6.03426 114.356 6.68659 115.029C7.34986 115.703 8.19248 116.039 9.21445 116.039C9.63845 116.039 10.0462 116.007 10.4376 115.942C10.8399 115.876 11.215 115.784 11.563 115.665V110.123H8.57844V106.261ZM25.4255 95.8472C27.1868 95.8472 28.6492 96.1021 29.8125 96.613C30.9759 97.1238 31.8402 97.8896 32.4056 98.9104C32.9818 99.9321 33.2699 101.214 33.2699 102.757C33.2699 103.735 33.1503 104.626 32.9112 105.43C32.672 106.223 32.2969 106.935 31.7858 107.564C31.2858 108.184 30.6443 108.727 29.8614 109.194L34.7704 119.674H29.731L25.8331 110.335H24.4632V119.674H19.8804V95.8472H25.4255ZM25.3928 99.7096H24.4632V106.717H25.4907C26.5126 106.717 27.2847 106.407 27.8065 105.788C28.3393 105.169 28.6056 104.235 28.6056 102.985C28.6056 101.866 28.3393 101.04 27.8065 100.508C27.2847 99.9757 26.4801 99.7096 25.3928 99.7096ZM51.6337 95.8472V111.835C51.6337 113.66 51.351 115.175 50.7857 116.381C50.2203 117.588 49.3885 118.495 48.2904 119.103C47.1923 119.7 45.8332 120 44.2132 120C41.8539 120 40.0382 119.337 38.7661 118.011C37.5048 116.675 36.8742 114.649 36.8742 111.932V95.8472H41.4407V111.77C41.4407 113.28 41.6799 114.361 42.1583 115.013C42.6367 115.654 43.3326 115.974 44.2458 115.974C44.8873 115.974 45.4146 115.838 45.8278 115.566C46.2518 115.285 46.5671 114.833 46.7736 114.214C46.9911 113.594 47.0999 112.769 47.0999 111.736V95.8472H51.6337ZM61.8429 95.8472C64.2672 95.8472 66.0672 96.4767 67.2408 97.7376C68.4265 98.9874 69.0194 100.812 69.0194 103.213C69.0194 104.419 68.8663 105.516 68.562 106.506C68.2688 107.484 67.8179 108.325 67.2083 109.031C66.5997 109.737 65.8334 110.281 64.9093 110.661C63.9852 111.041 62.8923 111.232 61.6314 111.232H60.3751V119.674H55.7924V95.8472H61.8429ZM61.5006 99.7421H60.3751V107.32H61.174C61.9032 107.32 62.5119 107.184 63.0008 106.913C63.4907 106.641 63.8599 106.207 64.1095 105.609C64.36 105.012 64.4853 104.224 64.4853 103.246C64.4853 102.029 64.2348 101.144 63.7347 100.589C63.2457 100.025 62.5007 99.7421 61.5006 99.7421ZM88.3935 107.727C88.3935 109.618 88.22 111.324 87.8721 112.845C87.5242 114.356 87.0018 115.642 86.306 116.708C85.6101 117.772 84.7297 118.587 83.6646 119.153C82.6097 119.717 81.3701 120 79.946 120C78.5107 120 77.26 119.717 76.1949 119.153C75.1289 118.576 74.2484 117.751 73.5526 116.675C72.8567 115.599 72.3353 114.306 71.9874 112.796C71.6395 111.286 71.465 109.585 71.465 107.695C71.465 105.022 71.7861 102.778 72.4272 100.964C73.0692 99.1496 74.0202 97.7812 75.282 96.8577C76.5428 95.9343 78.0978 95.4717 79.946 95.4717C81.8702 95.4717 83.4521 95.9668 84.6916 96.9551C85.9423 97.9434 86.8719 99.3564 87.4806 101.192C88.0892 103.018 88.3935 105.196 88.3935 107.727ZM76.2107 107.727C76.2107 109.553 76.3526 111.079 76.6347 112.308C76.9177 113.524 77.3361 114.442 77.8909 115.061C78.4457 115.67 79.1304 115.974 79.946 115.974C80.7717 115.974 81.4573 115.676 82.001 115.078C82.5549 114.48 82.9687 113.573 83.2406 112.356C83.5226 111.139 83.6646 109.597 83.6646 107.727C83.6646 104.936 83.3547 102.86 82.7349 101.502C82.1152 100.133 81.1855 99.4491 79.946 99.4491C79.1304 99.4491 78.4457 99.7588 77.8909 100.378C77.3361 100.996 76.9177 101.921 76.6347 103.148C76.3526 104.376 76.2107 105.902 76.2107 107.727ZM106.856 119.674L102.142 102.089H102.012C102.066 102.816 102.11 103.502 102.142 104.142C102.175 104.783 102.196 105.375 102.207 105.919C102.229 106.462 102.24 106.951 102.24 107.385V119.674H97.9674V95.8472H104.278L108.682 112.16H108.797L113.2 95.8472H119.478V119.674H115.107V107.353C115.107 106.864 115.113 106.353 115.124 105.821C115.145 105.278 115.168 104.702 115.189 104.093C115.222 103.474 115.26 102.816 115.303 102.121H115.173L110.427 119.674H106.856ZM134.482 119.674H123.767V95.8472H134.482V99.7421H128.351V105.348H134.058V109.26H128.351V115.697H134.482V119.674ZM154.526 119.674H149.144L142.164 103.05H142.034C142.099 103.821 142.148 104.55 142.18 105.234C142.224 105.908 142.251 106.527 142.262 107.092C142.283 107.657 142.294 108.168 142.294 108.624V119.674H138.022V95.8472H143.371L150.318 112.095H150.449C150.405 111.346 150.367 110.651 150.335 110.009C150.302 109.357 150.275 108.755 150.253 108.2C150.232 107.646 150.221 107.141 150.221 106.684V95.8472H154.526V119.674ZM173.901 107.32C173.901 109.982 173.531 112.231 172.792 114.067C172.064 115.904 170.993 117.299 169.579 118.256C168.176 119.201 166.453 119.674 164.409 119.674H158.799V95.8472H164.752C166.708 95.8472 168.367 96.2866 169.725 97.1674C171.096 98.0473 172.134 99.3397 172.841 101.046C173.548 102.752 173.901 104.843 173.901 107.32ZM169.187 107.532C169.187 105.75 169.019 104.289 168.682 103.148C168.345 102.007 167.839 101.165 167.166 100.622C166.502 100.079 165.676 99.807 164.687 99.807H163.382V115.665H164.377C166.029 115.665 167.242 114.996 168.014 113.66C168.796 112.323 169.187 110.281 169.187 107.532ZM177.489 119.674V95.8472H182.072V119.674H177.489ZM197.076 119.674H186.361V95.8472H197.076V99.7421H190.944V105.348H196.652V109.26H190.944V115.697H197.076V119.674ZM207.905 119.674H203.388V99.807H198.951V95.8472H212.308V99.807H207.905V119.674ZM225.518 119.674L224.279 113.936H218.978L217.739 119.674H212.83L218.603 95.8472H224.524L230.395 119.674H225.518ZM223.577 109.96L222.289 103.654C222.202 103.132 222.115 102.621 222.028 102.121C221.952 101.621 221.876 101.144 221.8 100.687C221.735 100.22 221.675 99.7856 221.621 99.3833C221.588 99.7634 221.539 100.182 221.474 100.639C221.409 101.095 221.332 101.573 221.246 102.073C221.159 102.573 221.06 103.078 220.952 103.588L219.68 109.96H223.577Z" fill="#9B0000"/>
</svg>
