<svg width="292" height="50" viewBox="0 0 292 50" fill="none" xmlns="http://www.w3.org/2000/svg">
<path d="M180.692 50.0004C179.893 50.0004 179.289 49.7537 178.88 49.2603C178.47 48.7559 178.266 48.0377 178.266 47.1056V46.4477H179.823V47.2372C179.823 47.9828 180.108 48.3557 180.677 48.3557C180.956 48.3557 181.166 48.2679 181.306 48.0925C181.455 47.9061 181.53 47.61 181.53 47.2043C181.53 46.7219 181.43 46.2997 181.231 45.9379C181.031 45.5651 180.662 45.121 180.123 44.6056C179.444 43.9477 178.969 43.3556 178.7 42.8293C178.43 42.292 178.296 41.6889 178.296 41.0201C178.296 40.11 178.505 39.4082 178.925 38.9148C179.344 38.4104 179.953 38.1582 180.752 38.1582C181.54 38.1582 182.134 38.4104 182.534 38.9148C182.943 39.4082 183.148 40.1209 183.148 41.053V41.5299H181.59V40.9378C181.59 40.5431 181.52 40.258 181.381 40.0826C181.241 39.8962 181.036 39.803 180.767 39.803C180.217 39.803 179.943 40.1703 179.943 40.9049C179.943 41.3216 180.043 41.7109 180.242 42.0727C180.452 42.4346 180.826 42.8732 181.366 43.3885C182.054 44.0464 182.529 44.644 182.788 45.1813C183.048 45.7186 183.178 46.3491 183.178 47.0727C183.178 48.0157 182.963 48.7394 182.534 49.2438C182.114 49.7482 181.5 50.0004 180.692 50.0004Z" fill="#1E1F23"/>
<path d="M184.122 38.3227H185.769V49.8359H184.122V38.3227Z" fill="#1E1F23"/>
<path d="M187.003 38.3227H191.496V39.9674H188.65V43.0102H190.912V44.655H188.65V48.1912H191.496V49.8359H187.003V38.3227Z" fill="#1E1F23"/>
<path d="M192.443 38.3227H194.795L195.843 46.5629H195.873L196.921 38.3227H199.272V49.8359H197.715V41.1188H197.685L196.487 49.8359H195.109L193.911 41.1188H193.881V49.8359H192.443V38.3227Z" fill="#1E1F23"/>
<path d="M200.501 38.3227H202.927C203.746 38.3227 204.36 38.5639 204.769 39.0464C205.179 39.5288 205.383 40.2361 205.383 41.1681V42.303C205.383 43.235 205.179 43.9422 204.769 44.4247C204.36 44.9072 203.746 45.1484 202.927 45.1484H202.149V49.8359H200.501V38.3227ZM202.927 43.5036C203.197 43.5036 203.397 43.4214 203.526 43.2569C203.666 43.0925 203.736 42.8128 203.736 42.4181V41.053C203.736 40.6582 203.666 40.3786 203.526 40.2141C203.397 40.0497 203.197 39.9674 202.927 39.9674H202.149V43.5036H202.927Z" fill="#1E1F23"/>
<path d="M206.278 38.3227H208.719C209.568 38.3227 210.187 38.542 210.576 38.9806C210.965 39.4082 211.16 40.0716 211.16 40.9707V41.678C211.16 42.8732 210.801 43.6297 210.082 43.9477V43.9806C210.481 44.1122 210.761 44.3808 210.92 44.7865C211.09 45.1922 211.175 45.735 211.175 46.4148V48.4379C211.175 48.7668 211.185 49.0355 211.205 49.2438C211.225 49.4412 211.275 49.6386 211.355 49.8359H209.677C209.618 49.6495 209.578 49.4741 209.558 49.3096C209.538 49.1451 209.528 48.8491 209.528 48.4214V46.3162C209.528 45.7898 209.448 45.4225 209.288 45.2142C209.138 45.0058 208.874 44.9017 208.494 44.9017H207.925V49.8359H206.278V38.3227ZM208.524 43.2569C208.854 43.2569 209.098 43.1637 209.258 42.9773C209.428 42.7909 209.513 42.4784 209.513 42.0398V41.1516C209.513 40.735 209.443 40.4334 209.303 40.247C209.173 40.0606 208.964 39.9674 208.674 39.9674H207.925V43.2569H208.524Z" fill="#1E1F23"/>
<path d="M212.318 38.3227H216.811V39.9674H213.965V43.0102H216.227V44.655H213.965V48.1912H216.811V49.8359H212.318V38.3227Z" fill="#1E1F23"/>
<path d="M221.43 38.3227H223.661L225.368 49.8359H223.721L223.421 47.5497V47.5826H221.549L221.25 49.8359H219.722L221.43 38.3227ZM223.227 46.0201L222.493 40.3293H222.463L221.744 46.0201H223.227Z" fill="#1E1F23"/>
<path d="M226.167 38.3227H228.683C229.502 38.3227 230.116 38.5639 230.525 39.0464C230.934 39.5288 231.139 40.2361 231.139 41.1681V46.9905C231.139 47.9225 230.934 48.6298 230.525 49.1122C230.116 49.5947 229.502 49.8359 228.683 49.8359H226.167V38.3227ZM228.653 48.1912C228.923 48.1912 229.127 48.1035 229.267 47.928C229.417 47.7526 229.492 47.4675 229.492 47.0727V41.0859C229.492 40.6911 229.417 40.406 229.267 40.2306C229.127 40.0551 228.923 39.9674 228.653 39.9674H227.815V48.1912H228.653Z" fill="#1E1F23"/>
<path d="M232.251 38.3227H236.744V39.9674H233.898V43.0102H236.16V44.655H233.898V48.1912H236.744V49.8359H232.251V38.3227Z" fill="#1E1F23"/>
<path d="M237.631 39.4548H239.116V48.3529H241.56V49.8359H237.631V39.4548Z" fill="#1E1F23"/>
<path d="M243.473 39.4548H245.485L247.024 49.8359H245.539L245.269 47.7745V47.8042H243.581L243.311 49.8359H241.934L243.473 39.4548ZM245.093 46.3953L244.432 41.2641H244.405L243.757 46.3953H245.093Z" fill="#1E1F23"/>
<path d="M247.745 39.4548H249.608L251.053 45.6686H251.08V39.4548H252.403V49.8359H250.878L249.095 42.2577H249.068V49.8359H247.745V39.4548Z" fill="#1E1F23"/>
<path d="M258.5 38.3227H262.993V39.9674H260.147V43.0102H262.409V44.655H260.147V48.1912H262.993V49.8359H258.5V38.3227Z" fill="#1E1F23"/>
<path d="M180.692 50.0004C179.893 50.0004 179.289 49.7537 178.88 49.2603C178.47 48.7559 178.266 48.0377 178.266 47.1056V46.4477H179.823V47.2372C179.823 47.9828 180.108 48.3557 180.677 48.3557C180.956 48.3557 181.166 48.2679 181.306 48.0925C181.455 47.9061 181.53 47.61 181.53 47.2043C181.53 46.7219 181.43 46.2997 181.231 45.9379C181.031 45.5651 180.662 45.121 180.123 44.6056C179.444 43.9477 178.969 43.3556 178.7 42.8293C178.43 42.292 178.296 41.6889 178.296 41.0201C178.296 40.11 178.505 39.4082 178.925 38.9148C179.344 38.4104 179.953 38.1582 180.752 38.1582C181.54 38.1582 182.134 38.4104 182.534 38.9148C182.943 39.4082 183.148 40.1209 183.148 41.053V41.5299H181.59V40.9378C181.59 40.5431 181.52 40.258 181.381 40.0826C181.241 39.8962 181.036 39.803 180.767 39.803C180.217 39.803 179.943 40.1703 179.943 40.9049C179.943 41.3216 180.043 41.7109 180.242 42.0727C180.452 42.4346 180.826 42.8732 181.366 43.3885C182.054 44.0464 182.529 44.644 182.788 45.1813C183.048 45.7186 183.178 46.3491 183.178 47.0727C183.178 48.0157 182.963 48.7394 182.534 49.2438C182.114 49.7482 181.5 50.0004 180.692 50.0004Z" fill="#3A3A3A"/>
<path d="M184.122 38.3227H185.769V49.8359H184.122V38.3227Z" fill="#3A3A3A"/>
<path d="M187.003 38.3227H191.496V39.9674H188.65V43.0102H190.912V44.655H188.65V48.1912H191.496V49.8359H187.003V38.3227Z" fill="#3A3A3A"/>
<path d="M192.443 38.3227H194.795L195.843 46.5629H195.873L196.921 38.3227H199.272V49.8359H197.715V41.1188H197.685L196.487 49.8359H195.109L193.911 41.1188H193.881V49.8359H192.443V38.3227Z" fill="#3A3A3A"/>
<path d="M200.501 38.3227H202.927C203.746 38.3227 204.36 38.5639 204.769 39.0464C205.179 39.5288 205.383 40.2361 205.383 41.1681V42.303C205.383 43.235 205.179 43.9422 204.769 44.4247C204.36 44.9072 203.746 45.1484 202.927 45.1484H202.149V49.8359H200.501V38.3227ZM202.927 43.5036C203.197 43.5036 203.397 43.4214 203.526 43.2569C203.666 43.0925 203.736 42.8128 203.736 42.4181V41.053C203.736 40.6582 203.666 40.3786 203.526 40.2141C203.397 40.0497 203.197 39.9674 202.927 39.9674H202.149V43.5036H202.927Z" fill="#3A3A3A"/>
<path d="M206.278 38.3227H208.719C209.568 38.3227 210.187 38.542 210.576 38.9806C210.965 39.4082 211.16 40.0716 211.16 40.9707V41.678C211.16 42.8732 210.801 43.6297 210.082 43.9477V43.9806C210.481 44.1122 210.761 44.3808 210.92 44.7865C211.09 45.1922 211.175 45.735 211.175 46.4148V48.4379C211.175 48.7668 211.185 49.0355 211.205 49.2438C211.225 49.4412 211.275 49.6386 211.355 49.8359H209.677C209.618 49.6495 209.578 49.4741 209.558 49.3096C209.538 49.1451 209.528 48.8491 209.528 48.4214V46.3162C209.528 45.7898 209.448 45.4225 209.288 45.2142C209.138 45.0058 208.874 44.9017 208.494 44.9017H207.925V49.8359H206.278V38.3227ZM208.524 43.2569C208.854 43.2569 209.098 43.1637 209.258 42.9773C209.428 42.7909 209.513 42.4784 209.513 42.0398V41.1516C209.513 40.735 209.443 40.4334 209.303 40.247C209.173 40.0606 208.964 39.9674 208.674 39.9674H207.925V43.2569H208.524Z" fill="#3A3A3A"/>
<path d="M212.318 38.3227H216.811V39.9674H213.965V43.0102H216.227V44.655H213.965V48.1912H216.811V49.8359H212.318V38.3227Z" fill="#3A3A3A"/>
<path d="M221.43 38.3227H223.661L225.368 49.8359H223.721L223.421 47.5497V47.5826H221.549L221.25 49.8359H219.722L221.43 38.3227ZM223.227 46.0201L222.493 40.3293H222.463L221.744 46.0201H223.227Z" fill="#3A3A3A"/>
<path d="M226.167 38.3227H228.683C229.502 38.3227 230.116 38.5639 230.525 39.0464C230.934 39.5288 231.139 40.2361 231.139 41.1681V46.9905C231.139 47.9225 230.934 48.6298 230.525 49.1122C230.116 49.5947 229.502 49.8359 228.683 49.8359H226.167V38.3227ZM228.653 48.1912C228.923 48.1912 229.127 48.1035 229.267 47.928C229.417 47.7526 229.492 47.4675 229.492 47.0727V41.0859C229.492 40.6911 229.417 40.406 229.267 40.2306C229.127 40.0551 228.923 39.9674 228.653 39.9674H227.815V48.1912H228.653Z" fill="#3A3A3A"/>
<path d="M232.251 38.3227H236.744V39.9674H233.898V43.0102H236.16V44.655H233.898V48.1912H236.744V49.8359H232.251V38.3227Z" fill="#3A3A3A"/>
<path d="M237.631 38.3227H239.116V48.3529H241.56V49.8359H237.631V38.3227Z" fill="#3A3A3A"/>
<path d="M243.581 38.3227H245.269L247.024 49.8359H245.539L245.269 47.7745V47.8042H243.581L243.311 49.8359H241.934L243.581 38.3227ZM245.093 46.3953L244.432 41.2641H244.405L243.757 46.3953H245.093Z" fill="#3A3A3A"/>
<path d="M247.745 38.3227H249.5L251.053 45.6686H251.08L251.053 38.3227H252.403V49.8359H250.878L249.095 42.2577H249.068V49.8359H247.745V38.3227Z" fill="#3A3A3A"/>
<path d="M254.669 39.6532H253.116V38.3227H257.707V39.6532H256.154V49.8359H254.669V39.6532Z" fill="#3A3A3A"/>
<path fill-rule="evenodd" clip-rule="evenodd" d="M169.052 46.0541H129.578V44.7383H169.052V46.0541Z" fill="#2D2D2D"/>
<path d="M104.184 27.6321C102.173 27.6321 100.64 27.0659 99.5838 25.9334C98.5279 24.7758 98 23.1275 98 20.9884V7.09688C98 4.95779 98.5279 3.32202 99.5838 2.18956C100.64 1.03194 102.173 0.453125 104.184 0.453125C106.196 0.453125 107.729 1.03194 108.785 2.18956C109.841 3.32202 110.369 4.95779 110.369 7.09688V9.3618H106.447V6.83264C106.447 5.0962 105.731 4.22799 104.298 4.22799C102.865 4.22799 102.148 5.0962 102.148 6.83264V21.2904C102.148 23.0016 102.865 23.8573 104.298 23.8573C105.731 23.8573 106.447 23.0016 106.447 21.2904V16.1188H104.373V12.3439H110.369V20.9884C110.369 23.1275 109.841 24.7758 108.785 25.9334C107.729 27.0659 106.196 27.6321 104.184 27.6321Z" fill="#9B0000"/>
<path d="M113.032 0.830611H119.179C121.316 0.830611 122.874 1.33393 123.855 2.34056C124.835 3.32202 125.326 4.84455 125.326 6.90814V8.53133C125.326 11.2744 124.421 13.0108 122.611 13.7406V13.8161C123.616 14.1181 124.32 14.7347 124.722 15.6658C125.15 16.5969 125.363 17.8427 125.363 19.4029V24.046C125.363 24.801 125.389 25.4175 125.439 25.8957C125.489 26.3487 125.615 26.8017 125.816 27.2546H121.592C121.442 26.8268 121.341 26.4242 121.291 26.0467C121.24 25.6692 121.215 24.9897 121.215 24.0083V19.1764C121.215 17.9685 121.014 17.1254 120.612 16.6473C120.235 16.1691 119.569 15.9301 118.613 15.9301H117.18V27.2546H113.032V0.830611ZM118.689 12.1552C119.518 12.1552 120.134 11.9413 120.536 11.5135C120.964 11.0857 121.178 10.3684 121.178 9.3618V7.32337C121.178 6.36707 121.002 5.67502 120.65 5.2472C120.323 4.81938 119.795 4.60547 119.066 4.60547H117.18V12.1552H118.689Z" fill="#9B0000"/>
<path d="M134.275 27.6321C132.264 27.6321 130.73 27.0659 129.674 25.9334C128.619 24.7758 128.091 23.1275 128.091 20.9884V0.830611H132.239V21.2904C132.239 22.1963 132.415 22.8506 132.767 23.2533C133.144 23.6559 133.672 23.8573 134.35 23.8573C135.029 23.8573 135.545 23.6559 135.897 23.2533C136.274 22.8506 136.462 22.1963 136.462 21.2904V0.830611H140.459V20.9884C140.459 23.1275 139.932 24.7758 138.876 25.9334C137.82 27.0659 136.286 27.6321 134.275 27.6321Z" fill="#9B0000"/>
<path d="M143.414 0.830611H149.523C151.584 0.830611 153.13 1.38426 154.161 2.49155C155.192 3.59884 155.707 5.22203 155.707 7.36112V9.96577C155.707 12.1049 155.192 13.7281 154.161 14.8353C153.13 15.9426 151.584 16.4963 149.523 16.4963H147.562V27.2546H143.414V0.830611ZM149.523 12.7214C150.202 12.7214 150.704 12.5327 151.031 12.1552C151.383 11.7777 151.559 11.136 151.559 10.23V7.09688C151.559 6.19091 151.383 5.54919 151.031 5.1717C150.704 4.79422 150.202 4.60547 149.523 4.60547H147.562V12.7214H149.523Z" fill="#9B0000"/>
<path d="M163.956 27.6321C161.92 27.6321 160.361 27.0533 159.28 25.8957C158.199 24.7381 157.658 23.1023 157.658 20.9884V7.09688C157.658 4.98296 158.199 3.34718 159.28 2.18956C160.361 1.03194 161.92 0.453125 163.956 0.453125C165.992 0.453125 167.551 1.03194 168.632 2.18956C169.713 3.34718 170.254 4.98296 170.254 7.09688V20.9884C170.254 23.1023 169.713 24.7381 168.632 25.8957C167.551 27.0533 165.992 27.6321 163.956 27.6321ZM163.956 23.8573C165.389 23.8573 166.106 22.989 166.106 21.2526V6.83264C166.106 5.0962 165.389 4.22799 163.956 4.22799C162.523 4.22799 161.807 5.0962 161.807 6.83264V21.2526C161.807 22.989 162.523 23.8573 163.956 23.8573Z" fill="#9B0000"/>
<path d="M179.098 0.830611H185.019L187.659 19.7427H187.734L190.374 0.830611H196.294V27.2546H192.372V7.24787H192.297L189.28 27.2546H185.811L182.794 7.24787H182.719V27.2546H179.098V0.830611Z" fill="#9B0000"/>
<path d="M199.39 0.830611H210.703V4.60547H203.538V11.589H209.232V15.3638H203.538V23.4798H210.703V27.2546H199.39V0.830611Z" fill="#9B0000"/>
<path d="M213.089 0.830611H218.293L222.328 16.6473H222.403V0.830611H226.099V27.2546H221.838L216.86 7.9651H216.785V27.2546H213.089V0.830611Z" fill="#9B0000"/>
<path d="M229.182 0.830611H235.517C237.579 0.830611 239.125 1.38426 240.156 2.49155C241.186 3.59884 241.702 5.22203 241.702 7.36112V20.7241C241.702 22.8632 241.186 24.4864 240.156 25.5937C239.125 26.701 237.579 27.2546 235.517 27.2546H229.182V0.830611ZM235.442 23.4798C236.121 23.4798 236.636 23.2785 236.988 22.8758C237.365 22.4731 237.554 21.8188 237.554 20.9129V7.17238C237.554 6.26641 237.365 5.6121 236.988 5.20945C236.636 4.8068 236.121 4.60547 235.442 4.60547H233.33V23.4798H235.442Z" fill="#9B0000"/>
<path d="M244.502 0.830611H248.65V27.2546H244.502V0.830611Z" fill="#9B0000"/>
<path d="M251.757 0.830611H263.07V4.60547H255.905V11.589H261.599V15.3638H255.905V23.4798H263.07V27.2546H251.757V0.830611Z" fill="#9B0000"/>
<path d="M268.849 4.5H264.377V0.830611H277.601V4.5H273.128V27.2546H268.849V4.5Z" fill="#9B0000"/>
<path d="M281.058 0.830278H286.853L291.423 27.2546H287.144L286.366 21.8427V21.9206H281.504L280.726 27.2546H276.759L281.058 0.830278ZM285.861 18.2218L283.955 4.75037H283.877L282.01 18.2218H285.861Z" fill="#9B0000"/>
<path d="M42.7971 18.6431H24.8567C21.4265 18.6431 18.6419 21.4277 18.6419 24.8579C18.6419 28.2881 21.4265 31.0727 24.8567 31.0727H35.6133C33.4756 34.7892 29.4617 37.2875 24.8567 37.2875C20.2517 37.2875 16.244 34.7892 14.1001 31.0727C13.0306 29.2461 12.4283 27.127 12.4283 24.8579C12.4283 22.5889 13.0368 20.471 14.1001 18.6431C16.244 14.9266 20.2579 12.4283 24.8567 12.4283H53.5599L49.9748 6.21974L46.3835 0H24.8579C15.6603 0 7.62504 4.99661 3.32488 12.4283C2.21204 14.3479 1.34829 16.436 0.783199 18.6431C0.273872 20.6321 0 22.714 0 24.8579C0 27.0018 0.273872 29.0837 0.783199 31.0727C3.54175 41.7983 13.2735 49.7158 24.8567 49.7158H24.8629C33.8672 49.7158 41.7537 44.9249 46.1158 37.7534L46.4207 37.2255L49.9748 31.0801V31.0739L57.1525 18.6518V18.6456H42.7971V18.6431Z" fill="#C60505"/>
<path d="M75.0947 0L74.5718 0.900927L67.917 12.4283L64.3307 18.6431L62.0691 22.5517V22.5579L60.7394 24.8629L57.1542 18.6493L49.9766 31.0715V31.0777L53.5617 37.2912L57.1542 43.506L60.7394 49.7133L67.917 37.2912V37.285L71.5022 31.0715L74.5718 25.7576V49.7133H87.0013V4.232V0H75.0947Z" fill="#9B0000"/>
<path d="M46.3827 0H34.4922L40.6785 12.4283H53.5591L46.3827 0Z" fill="#9B0000"/>
</svg>
