<svg width="42" height="42" viewBox="0 0 42 42" fill="none" xmlns="http://www.w3.org/2000/svg">
<path d="M42 20.6976C42 26.3473 39.7556 31.7657 35.7607 35.7607C31.7657 39.7556 26.3473 42 20.6976 42C15.2083 42 9.94374 39.8194 6.06219 35.9378C2.18063 32.0563 0 26.7917 0 21.3024C0 15.6527 2.24435 10.2343 6.23933 6.23933C10.2343 2.24435 15.6527 0 21.3024 0C26.7917 0 32.0563 2.18063 35.9378 6.06219C39.8194 9.94374 42 15.2083 42 20.6976Z" fill="url(#paint0_linear_35_3530)"/>
<path fill-rule="evenodd" clip-rule="evenodd" d="M30.9057 24.8717C29.8053 24.2165 28.3857 23.4773 27.0753 24.0317C26.0757 24.4349 25.4457 25.9889 24.7989 26.7869C24.662 26.9755 24.4605 27.1071 24.2328 27.1567C24.005 27.2063 23.7671 27.1703 23.5641 27.0557C19.9271 25.6283 16.8785 23.0148 14.9121 19.6385C14.7463 19.4259 14.6678 19.158 14.6928 18.8895C14.7178 18.621 14.8443 18.3721 15.0465 18.1937C15.7789 17.5034 16.32 16.6352 16.6173 15.6737C16.6949 14.6075 16.4677 13.5413 15.9621 12.5993C15.4413 11.4821 14.8533 9.87773 13.7277 9.23933C13.1861 8.99169 12.5842 8.90669 11.9952 8.99467C11.4061 9.08265 10.8554 9.33982 10.4097 9.73493C9.64538 10.392 9.03863 11.2125 8.6344 12.1359C8.23018 13.0592 8.03883 14.0616 8.07453 15.0689C8.08245 15.635 8.15288 16.1984 8.28453 16.7489C8.64039 18.0697 9.18651 19.3318 9.90573 20.4953C10.4265 21.3857 10.9977 22.2425 11.5857 23.0741C13.577 25.8022 16.0753 28.1208 18.9441 29.9033C20.3813 30.8089 21.9173 31.5473 23.5221 32.1041C25.3197 32.6921 26.9241 33.3137 28.8645 32.9441C29.9049 32.7838 30.8903 32.3717 31.735 31.7437C32.5798 31.1156 33.2582 30.2906 33.7113 29.3405C33.9662 28.7659 34.0423 28.1278 33.9297 27.5093C33.6441 26.2409 31.9221 25.4849 30.9057 24.8717Z" fill="white"/>
<defs>
<linearGradient id="paint0_linear_35_3530" x1="35.9184" y1="6.0732" x2="6.0732" y2="35.9184" gradientUnits="userSpaceOnUse">
<stop stop-color="#FF0000"/>
<stop offset="1" stop-color="#850000"/>
</linearGradient>
</defs>
</svg>
