<svg width="42" height="42" viewBox="0 0 42 42" fill="none" xmlns="http://www.w3.org/2000/svg">
<path d="M42 20.6976C42 26.3473 39.7556 31.7657 35.7607 35.7607C31.7657 39.7556 26.3473 42 20.6976 42C15.2083 42 9.94374 39.8194 6.06219 35.9378C2.18063 32.0563 0 26.7917 0 21.3024C0 15.6527 2.24436 10.2343 6.23933 6.23933C10.2343 2.24435 15.6527 0 21.3024 0C26.7917 0 32.0563 2.18063 35.9378 6.06219C39.8194 9.94374 42 15.2083 42 20.6976Z" fill="url(#paint0_linear_112_3574)"/>
<path d="M7.70312 34.0174L9.59312 26.9782C8.08092 24.2412 7.60639 21.0506 8.25661 17.9919C8.90683 14.9333 10.6382 12.2116 13.133 10.3264C15.6278 8.44118 18.7188 7.51879 21.8388 7.72849C24.9588 7.93818 27.8985 9.26589 30.1186 11.468C32.3387 13.6701 33.6903 16.599 33.9254 19.7172C34.1605 22.8353 33.2633 25.9337 31.3984 28.4438C29.5335 30.9539 26.8261 32.7073 23.7728 33.3824C20.7195 34.0575 17.5252 33.6089 14.7759 32.119L7.70312 34.0174ZM15.1287 29.4814L15.5739 29.7502C17.7891 31.0691 20.4103 31.5319 22.9432 31.0514C25.4761 30.571 27.7457 29.1804 29.3241 27.142C30.9024 25.1035 31.6805 22.558 31.5115 19.9855C31.3425 17.413 30.2381 14.9912 28.4067 13.1767C26.5752 11.3622 24.1432 10.2805 21.5692 10.1355C18.9952 9.99054 16.4571 10.7923 14.4335 12.3896C12.4099 13.9869 11.0405 16.2693 10.5837 18.8066C10.1268 21.3439 10.6141 23.9606 11.9535 26.1634L12.2307 26.617L11.1807 30.5398L15.1287 29.4814Z" fill="white"/>
<path fill-rule="evenodd" clip-rule="evenodd" d="M25.8437 23.1505C25.5847 22.9443 25.2824 22.7993 24.9595 22.7266C24.6365 22.6538 24.3013 22.6552 23.9789 22.7305C23.5001 22.9321 23.1893 23.6881 22.8785 24.0745C22.8099 24.165 22.7108 24.2276 22.5997 24.2507C22.4885 24.2739 22.3727 24.256 22.2737 24.2005C20.5068 23.5082 19.0265 22.238 18.0737 20.5969C17.9908 20.4943 17.9507 20.3637 17.9616 20.2323C17.9726 20.1009 18.0338 19.9788 18.1325 19.8913C18.4928 19.5552 18.7567 19.1289 18.8969 18.6565C18.9242 18.1448 18.8078 17.6356 18.5609 17.1865C18.3005 16.6405 18.0233 15.8593 17.4773 15.5569C17.2149 15.425 16.9193 15.3737 16.6277 15.4096C16.3362 15.4455 16.0619 15.5669 15.8393 15.7585C15.4676 16.0783 15.1727 16.4777 14.9764 16.927C14.7801 17.3764 14.6875 17.8641 14.7053 18.3541C14.7034 18.6372 14.7372 18.9195 14.8061 19.1941C14.9775 19.8375 15.2436 20.4518 15.5957 21.0169C15.8519 21.4496 16.1324 21.8674 16.4357 22.2685C17.4115 23.5921 18.6355 24.7133 20.0393 25.5697C20.7405 26.008 21.4904 26.3632 22.2737 26.6281C23.0856 26.998 23.9828 27.1403 24.8693 27.0397C25.3735 26.9608 25.8511 26.7606 26.2608 26.4562C26.6705 26.1519 27.0001 25.7525 27.2213 25.2925C27.3486 25.0111 27.3868 24.6974 27.3305 24.3937C27.1709 23.7805 26.3393 23.4109 25.8437 23.1505Z" fill="white"/>
<defs>
<linearGradient id="paint0_linear_112_3574" x1="35.9184" y1="6.0732" x2="6.0732" y2="35.9184" gradientUnits="userSpaceOnUse">
<stop stop-color="#FF0000"/>
<stop offset="1" stop-color="#850000"/>
</linearGradient>
</defs>
</svg>
