<svg width="20" height="22" viewBox="0 0 20 22" fill="none" xmlns="http://www.w3.org/2000/svg">
<path d="M3.37014 18.5578C2.7445 18.5578 2.15988 18.3423 1.73937 17.9423C1.20604 17.4397 0.949626 16.6807 1.04193 15.8602L1.42142 12.5372C1.49322 11.9115 1.8727 11.0807 2.31373 10.6295L10.7343 1.7167C12.8368 -0.508944 15.0317 -0.570483 17.2573 1.53208C19.483 3.63465 19.5445 5.82952 17.4419 8.05516L9.02143 16.9679C8.59066 17.4295 7.79065 17.8602 7.16501 17.9629L3.86245 18.5269C3.68809 18.5372 3.53424 18.5578 3.37014 18.5578ZM14.0266 1.52183C13.2368 1.52183 12.5496 2.01413 11.8522 2.7526L3.43168 11.6757C3.22655 11.8911 2.99065 12.4039 2.94963 12.7014L2.57014 16.0243C2.52911 16.3628 2.61116 16.6397 2.79578 16.8141C2.98039 16.9884 3.25732 17.05 3.59578 16.9987L6.89834 16.4347C7.19578 16.3834 7.68809 16.1166 7.89322 15.9013L16.3137 6.98849C17.5855 5.63465 18.0471 4.38337 16.1907 2.63978C15.3701 1.85003 14.6625 1.52183 14.0266 1.52183Z" fill="#66718F"/>
<path d="M15.4718 9.76968C15.4512 9.76968 15.4205 9.76968 15.4 9.76968C12.2 9.45173 9.62561 7.02101 9.1333 3.84152C9.07176 3.42101 9.35894 3.03127 9.77945 2.95947C10.2 2.89793 10.5897 3.18511 10.6615 3.60562C11.0512 6.08768 13.0615 7.99537 15.5641 8.24152C15.9846 8.28255 16.2923 8.66204 16.2512 9.0825C16.2 9.47224 15.8615 9.76968 15.4718 9.76968Z" fill="#66718F"/>
<path d="M19.2308 21.8705H0.769231C0.348718 21.8705 0 21.5218 0 21.1013C0 20.6807 0.348718 20.332 0.769231 20.332H19.2308C19.6513 20.332 20 20.6807 20 21.1013C20 21.5218 19.6513 21.8705 19.2308 21.8705Z" fill="#66718F"/>
</svg>
