<svg width="21" height="18" viewBox="0 0 21 18" fill="none" xmlns="http://www.w3.org/2000/svg">
<path d="M15.25 14.3829H11.45L7.22249 16.8587C6.59549 17.2268 5.75 16.8336 5.75 16.1645V14.3829C2.9 14.3829 1 12.71 1 10.2008V5.18215C1 2.67286 2.9 1 5.75 1H15.25C18.1 1 20 2.67286 20 5.18215V10.2008C20 12.71 18.1 14.3829 15.25 14.3829Z" fill="white" stroke="#66718F" stroke-miterlimit="10" stroke-linecap="round" stroke-linejoin="round"/>
<path opacity="0.4" d="M10.4989 8.471V8.29535C10.4989 7.72658 10.8979 7.42546 11.2969 7.18289C11.6864 6.94869 12.0759 6.64758 12.0759 6.09554C12.0759 5.32602 11.3729 4.70703 10.4989 4.70703C9.62487 4.70703 8.92188 5.32602 8.92188 6.09554" stroke="#001B63" stroke-linecap="round" stroke-linejoin="round"/>
<path opacity="0.4" d="M10.4922 10.4688H10.5015" stroke="#001449" stroke-linecap="round" stroke-linejoin="round"/>
</svg>
