<svg width="15" height="18" viewBox="0 0 15 18" fill="none" xmlns="http://www.w3.org/2000/svg">
<path d="M7.55138 9.0918C4.21943 9.0918 1.51562 11.7834 1.51562 15.1002C1.51562 15.5149 1.55659 15.9227 1.63853 16.3169H13.4574C13.5393 15.9227 13.5803 15.5217 13.5803 15.1002C13.5803 11.7834 10.8765 9.0918 7.54456 9.0918H7.55138Z" stroke="white" stroke-width="1.7" stroke-miterlimit="10"/>
<path d="M7.60664 8.9356C9.32239 8.9356 10.7133 7.22539 10.7133 5.11575C10.7133 3.0061 9.32239 1.2959 7.60664 1.2959C5.89089 1.2959 4.5 3.0061 4.5 5.11575C4.5 7.22539 5.89089 8.9356 7.60664 8.9356Z" stroke="white" stroke-width="1.7" stroke-miterlimit="10"/>
<path d="M7.40618 8.9502C3.86974 8.9502 1 11.6948 1 15.0771C1 15.4999 1.04348 15.9157 1.13044 16.3177H13.6747C13.7616 15.9157 13.8051 15.5068 13.8051 15.0771C13.8051 11.6948 10.9354 8.9502 7.39893 8.9502H7.40618Z" stroke="#66718F" stroke-width="1.5" stroke-miterlimit="10"/>
<path d="M7.46136 8.7903C9.28241 8.7903 10.7587 7.04638 10.7587 4.89515C10.7587 2.74392 9.28241 1 7.46136 1C5.64031 1 4.16406 2.74392 4.16406 4.89515C4.16406 7.04638 5.64031 8.7903 7.46136 8.7903Z" stroke="#66718F" stroke-width="1.5" stroke-miterlimit="10"/>
</svg>
