<svg width="26" height="25" viewBox="0 0 26 25" fill="none" xmlns="http://www.w3.org/2000/svg">
<path fill-rule="evenodd" clip-rule="evenodd" d="M17.7573 2.773C18.1916 1.18375 19.6946 0 21.4719 0C23.5853 0 25.3167 1.67124 25.3167 3.7105C25.3168 4.18742 25.2206 4.65977 25.0335 5.101C24.993 5.2145 24.9457 5.3255 24.8863 5.42975L24.6251 5.86025L25.4595 6.23575C25.5712 6.28594 25.6657 6.36598 25.732 6.46644C25.7982 6.5669 25.8334 6.68359 25.8333 6.80275V24.3745C25.8333 24.831 25.3435 25.1333 24.9155 24.941L17.0071 21.386L9.09876 24.941C9.01346 24.9794 8.92054 24.9993 8.82648 24.9993C8.73241 24.9993 8.63949 24.9794 8.55419 24.941L0.373808 21.2638C0.262128 21.2136 0.167604 21.1335 0.101374 21.0331C0.0351447 20.9326 -2.85401e-05 20.8159 1.73758e-08 20.6968V3.125C1.82558e-05 3.02 0.0273701 2.9167 0.0795312 2.82463C0.131692 2.73256 0.206982 2.6547 0.298448 2.59822C0.389913 2.54174 0.494606 2.50848 0.602864 2.50149C0.711121 2.4945 0.819454 2.51402 0.917859 2.55825L8.82622 6.11325L16.7346 2.558C16.8199 2.51962 16.9128 2.49974 17.0069 2.49974C17.1009 2.49974 17.1938 2.51962 17.2791 2.558L17.7573 2.773ZM23.5148 3.7105C23.5148 2.61225 22.6098 1.73825 21.4719 1.73825C20.3339 1.73825 19.429 2.61225 19.429 3.7105C19.429 4.8085 20.3339 5.68175 21.4719 5.68175C22.6098 5.68175 23.5148 4.8085 23.5148 3.7105ZM7.86232 7.6087L1.29167 4.1045V20.2978L7.86232 23.3696V7.6087ZM17.168 4.34779L17.5237 4.50804C17.5931 5.13273 17.8266 5.72985 18.2019 6.24254L20.8751 10.7151C21.2497 11.1886 21.4987 11.0986 21.81 10.6901L23.8397 7.3468L24.7101 7.60866V23.9179L17.2639 20.5848L17.168 4.34779ZM16.2384 4.50804V10.7143V20.5848L9.59554 23.5714V7.60866L16.2384 4.50804Z" fill="white"/>
</svg>
