<svg width="20" height="22" viewBox="0 0 20 22" fill="none" xmlns="http://www.w3.org/2000/svg">
<path d="M3.48389 19C2.82167 19 2.20288 18.7794 1.75779 18.3698C1.19327 17.8553 0.921873 17.0782 1.01958 16.2382L1.42125 12.8359C1.49724 12.1954 1.89891 11.3448 2.36572 10.8828L11.2785 1.75761C13.504 -0.521072 15.8272 -0.584077 18.1829 1.56859C20.5387 3.72126 20.6038 5.96843 18.3784 8.24711L9.46557 17.3723C9.00961 17.8448 8.16283 18.2858 7.50062 18.391L4.00498 18.9684C3.82043 18.9789 3.65759 19 3.48389 19ZM14.7633 1.55809C13.9274 1.55809 13.2 2.06213 12.4618 2.81819L3.54903 11.954C3.33191 12.1745 3.08222 12.6995 3.0388 13.004L2.63712 16.4062C2.5937 16.7527 2.68055 17.0362 2.87596 17.2148C3.07136 17.3933 3.36448 17.4563 3.72272 17.4038L7.21836 16.8263C7.53318 16.7738 8.05427 16.5007 8.27139 16.2802L17.1842 7.15503C18.5303 5.76892 19.0189 4.48782 17.0539 2.70268C16.1854 1.89412 15.4364 1.55809 14.7633 1.55809Z" fill="#66718F"/>
<path d="M16.2311 10C16.211 10 16.1808 10 16.1606 10C13.0189 9.67359 10.4915 7.17817 10.0081 3.91405C9.94773 3.48234 10.2297 3.08223 10.6425 3.00852C11.0554 2.94534 11.438 3.24017 11.5085 3.67187C11.8911 6.21999 13.8648 8.17846 16.3217 8.43117C16.7346 8.47329 17.0367 8.86288 16.9964 9.29453C16.946 9.69465 16.6138 10 16.2311 10Z" fill="#66718F"/>
<path d="M19.2308 21.8705H0.769231C0.348718 21.8705 0 21.5218 0 21.1013C0 20.6807 0.348718 20.332 0.769231 20.332H19.2308C19.6513 20.332 20 20.6807 20 21.1013C20 21.5218 19.6513 21.8705 19.2308 21.8705Z" fill="#66718F"/>
</svg>
