<svg width="36" height="37" viewBox="0 0 36 37" fill="none" xmlns="http://www.w3.org/2000/svg">
<path d="M3.27273 7.37846V33.5603H29.4545V36.833H3.27273C1.47273 36.833 0 35.3603 0 33.5603V7.37846H3.27273ZM32.7273 0.833008H9.81818C8.00182 0.833008 6.54545 2.28937 6.54545 4.10574V27.0148C6.54545 28.8148 8.01818 30.2876 9.81818 30.2876H32.7273C34.5436 30.2876 36 28.8312 36 27.0148V4.10574C36 2.30574 34.5273 0.833008 32.7273 0.833008ZM32.7273 27.0148H9.81818V4.10574H32.7273V27.0148ZM16.3636 22.1057H11.4545V25.3785H16.3636V22.1057ZM22.9091 22.1057H18V25.3785H22.9091V22.1057ZM16.3636 17.1966H11.4545V20.4694H16.3636V17.1966ZM22.9091 17.1966H18V20.4694H22.9091V17.1966ZM16.3636 12.2876H11.4545V15.5603H16.3636V12.2876ZM22.9091 12.2876H18V15.5603H22.9091V12.2876Z" fill="#66718F"/>
</svg>
