<svg width="26" height="26" viewBox="0 0 26 26" fill="none" xmlns="http://www.w3.org/2000/svg">
<path d="M15.076 23.804C14.865 24.1678 14.5622 24.4697 14.1979 24.6796C13.8335 24.8895 13.4205 25 13 25C12.5795 25 12.1665 24.8895 11.8021 24.6796C11.4378 24.4697 11.135 24.1678 10.924 23.804M25 19.0032H1C1.95478 19.0032 2.87045 18.6238 3.54558 17.9486C4.22072 17.2733 4.6 16.3575 4.6 15.4026V9.40149C4.6 7.17328 5.485 5.03633 7.0603 3.46074C8.63561 1.88516 10.7722 1 13 1C15.2278 1 17.3644 1.88516 18.9397 3.46074C20.515 5.03633 21.4 7.17328 21.4 9.40149V15.4026C21.4 16.3575 21.7793 17.2733 22.4544 17.9486C23.1295 18.6238 24.0452 19.0032 25 19.0032Z" stroke="white" stroke-width="2" stroke-linecap="square" stroke-linejoin="round"/>
</svg>
