<svg width="33" height="22" viewBox="0 0 33 22" fill="none" xmlns="http://www.w3.org/2000/svg">
<path d="M24.7812 0.0069236C21.585 0.0883183 19.1075 0.891267 16.6954 1.66782C14.1159 2.49716 11.6811 3.27921 8.30789 3.31111C6.0539 3.34411 2.90356 3.37329 2.11144 2.64C1.31932 1.90671 0.00337312 0.320188 0.00275193 1.17945C-0.000289634 5.38668 -0.00119517 7.64153 0.00232282 20.558C0.00240553 20.8617 0.793668 20.8187 0.793668 20.8187C2.85992 21.4951 4.97263 21.8856 7.07572 21.978C7.4096 21.9923 7.73637 22 8.05718 22C11.6372 22 14.3785 21.1201 17.0365 20.2709C19.8382 19.3734 22.4809 18.5253 26.087 18.6826C27.9984 18.7735 29.8852 19.1233 31.687 19.7209C31.687 19.7209 33 20.7635 33 20.155C33 13.2 33 2.64 33 1.3583C33 1.02768 32.4903 1.17945 32.4903 1.17945C30.4685 0.497822 28.3459 0.106129 26.1963 0.0179231C25.7249 -0.00145051 25.2529 -0.00511957 24.7812 0.0069236ZM24.8453 2.19138C25.2493 2.18038 25.6628 2.18038 26.0918 2.19578C26.5361 2.21338 26.9806 2.25078 27.4237 2.29918C27.6045 2.98933 28.0673 3.58773 28.7147 3.96864C29.3622 4.34954 30.5323 4.64998 31.284 4.50845V14.52C30.8948 14.4467 30.1052 14.2798 29.7159 14.3528C29.3266 14.4258 28.9571 14.5705 28.6294 14.7782C28.3017 14.986 28.0224 15.2526 27.8081 15.5622C27.5939 15.8719 27.449 16.2182 27.3822 16.5807C26.9886 16.5432 26.5939 16.7886 26.1987 16.7718C22.1411 16.6068 19.149 17.5517 16.257 18.48C13.4517 19.3797 10.7935 19.9574 7.18978 19.799C6.74095 19.7773 6.29309 19.7406 5.84711 19.6891C5.66479 19.0008 5.20193 18.4045 4.55546 18.025C3.90899 17.6456 2.43268 17.3507 1.68245 17.4916V7.48C2.07401 7.55377 3.17396 7.71496 3.56538 7.64055C3.95679 7.56613 4.32793 7.41917 4.65639 7.20852C4.98485 6.99786 5.2639 6.72786 5.47669 6.41477C5.68949 6.10167 5.83166 5.75196 5.89464 5.38668C6.70855 5.46477 7.24565 5.39878 8.05718 5.38668C11.8178 5.35148 14.552 4.47043 17.1981 3.61909C19.5281 2.86784 22.0258 2.27278 24.8453 2.19138ZM16.6372 5.49777C14.0161 5.49777 11.8844 7.96491 11.8844 10.9974C11.8844 14.0299 14.0161 16.4971 16.6372 16.4971C19.2583 16.4971 21.39 14.0299 21.39 10.9974C21.39 7.96491 19.2583 5.49777 16.6372 5.49777ZM16.6972 7.04C18.6333 7.04 19.9039 9.15185 19.9039 10.9403C19.9039 12.7288 19.2711 14.52 16.6372 14.96C13.6942 14.52 13.3706 12.3539 13.3706 10.5654C13.3706 8.7769 14.9812 7.04 16.6972 7.04Z" fill="white"/>
</svg>
