<svg width="15" height="18" viewBox="0 0 15 18" fill="none" xmlns="http://www.w3.org/2000/svg">
<path d="M8.86273 1H2.57257C2.1555 1 1.41933 1 1 1C1 1.3635 1.00003 2.17521 1.00003 2.59939V15.3945C1.00003 15.8187 1 16.2669 1 16.6304C1 16.9939 2.1555 16.9939 2.57257 16.9939H12.0078C12.4249 16.9939 12.7417 16.9939 13.161 16.9939C14.0409 17.0989 13.9997 15.8187 13.9997 15.3945V5.36197L8.86273 1Z" stroke="#66718F" stroke-width="1.5" stroke-linecap="round" stroke-linejoin="round"/>
<path d="M8.125 1.72656V5.72504H13.5765" stroke="#66718F" stroke-width="1.5" stroke-linecap="round" stroke-linejoin="round"/>
<path d="M9.98548 9.88574H3.69531" stroke="#66718F" stroke-width="1.5" stroke-linecap="round" stroke-linejoin="round"/>
<path d="M9.98548 12.5508H3.69531" stroke="#66718F" stroke-width="1.5" stroke-linecap="round" stroke-linejoin="round"/>
<path d="M5.4925 6.33105H4.59391H3.69531" stroke="#66718F" stroke-width="1.5" stroke-linecap="round" stroke-linejoin="round"/>
</svg>
