<svg width="31" height="35" viewBox="0 0 31 35" fill="none" xmlns="http://www.w3.org/2000/svg">
<path d="M27.5556 3.5C28.4691 3.5 29.3452 3.86875 29.9911 4.52513C30.6371 5.1815 31 6.07174 31 7V31.5C31 32.4283 30.6371 33.3185 29.9911 33.9749C29.3452 34.6313 28.4691 35 27.5556 35H3.44444C2.53092 35 1.65481 34.6313 1.00885 33.9749C0.362896 33.3185 0 32.4283 0 31.5V7C0 6.07174 0.362896 5.1815 1.00885 4.52513C1.65481 3.86875 2.53092 3.5 3.44444 3.5H10.6433C11.3667 1.47 13.2611 0 15.5 0C17.7389 0 19.6333 1.47 20.3567 3.5H27.5556ZM15.5 3.5C15.0432 3.5 14.6052 3.68437 14.2822 4.01256C13.9592 4.34075 13.7778 4.78587 13.7778 5.25C13.7778 5.71413 13.9592 6.15925 14.2822 6.48744C14.6052 6.81563 15.0432 7 15.5 7C15.9568 7 16.3948 6.81563 16.7178 6.48744C17.0408 6.15925 17.2222 5.71413 17.2222 5.25C17.2222 4.78587 17.0408 4.34075 16.7178 4.01256C16.3948 3.68437 15.9568 3.5 15.5 3.5ZM6.88889 10.5V7H3.44444V31.5H27.5556V7H24.1111V10.5H6.88889ZM15.5 14C16.4135 14 17.2896 14.3687 17.9356 15.0251C18.5815 15.6815 18.9444 16.5717 18.9444 17.5C18.9444 18.4283 18.5815 19.3185 17.9356 19.9749C17.2896 20.6313 16.4135 21 15.5 21C14.5865 21 13.7104 20.6313 13.0644 19.9749C12.4185 19.3185 12.0556 18.4283 12.0556 17.5C12.0556 16.5717 12.4185 15.6815 13.0644 15.0251C13.7104 14.3687 14.5865 14 15.5 14ZM8.61111 28V26.25C8.61111 24.325 11.6939 22.75 15.5 22.75C19.3061 22.75 22.3889 24.325 22.3889 26.25V28H8.61111Z" fill="#66718F"/>
</svg>
