<svg width="25" height="23" viewBox="0 0 25 23" fill="none" xmlns="http://www.w3.org/2000/svg">
<path d="M21.8141 8.26765C19.7022 8.26765 18.8388 6.81808 19.8889 5.04008C20.4956 4.00952 20.1339 2.69584 19.0721 2.10695L17.0536 0.985789C16.1318 0.453522 14.9417 0.770618 14.3933 1.66528L14.265 1.88045C13.2149 3.65845 11.488 3.65845 10.4263 1.88045L10.2979 1.66528C9.77288 0.770618 8.58276 0.453522 7.661 0.985789L5.64247 2.10695C4.5807 2.69584 4.21899 4.02084 4.82572 5.0514C5.88749 6.81808 5.02407 8.26765 2.9122 8.26765C1.69875 8.26765 0.695312 9.23026 0.695312 10.4194V12.4125C0.695312 13.5903 1.68708 14.5643 2.9122 14.5643C5.02407 14.5643 5.88749 16.0138 4.82572 17.7918C4.21899 18.8224 4.5807 20.1361 5.64247 20.725L7.661 21.8461C8.58276 22.3784 9.77288 22.0613 10.3213 21.1666L10.4496 20.9515C11.4997 19.1735 13.2266 19.1735 14.2883 20.9515L14.4167 21.1666C14.9651 22.0613 16.1552 22.3784 17.0769 21.8461L19.0955 20.725C20.1572 20.1361 20.5189 18.8111 19.9122 17.7918C18.8504 16.0138 19.7139 14.5643 21.8257 14.5643C23.0392 14.5643 24.0426 13.6016 24.0426 12.4125V10.4194C24.031 9.24159 23.0392 8.26765 21.8141 8.26765ZM12.3631 15.0965C10.2746 15.0965 8.57109 13.4431 8.57109 11.416C8.57109 9.38881 10.2746 7.73539 12.3631 7.73539C14.4517 7.73539 16.1552 9.38881 16.1552 11.416C16.1552 13.4431 14.4517 15.0965 12.3631 15.0965Z" fill="#66718F"/>
</svg>
