<svg width="21" height="26" viewBox="0 0 21 26" fill="none" xmlns="http://www.w3.org/2000/svg">
<path d="M12.4917 1H3.29837C2.68881 1 1.61286 1 1 1C1 1.54525 1.00004 2.76281 1.00004 3.39909V22.5918C1.00004 23.2281 1 23.9004 1 24.4456C1 24.9909 2.68881 24.9909 3.29837 24.9909H17.0883C17.6979 24.9909 18.1609 24.9909 18.7738 24.9909C20.0598 25.1483 19.9996 23.2281 19.9996 22.5918V7.54296L12.4917 1Z" stroke="white" stroke-width="1.5" stroke-linecap="round" stroke-linejoin="round"/>
<path d="M11.4219 2.09082V8.08854H19.3894" stroke="white" stroke-width="1.5" stroke-linecap="round" stroke-linejoin="round"/>
<path d="M14.1308 14.3281H4.9375" stroke="white" stroke-width="1.5" stroke-linecap="round" stroke-linejoin="round"/>
<path d="M14.1308 18.3262H4.9375" stroke="white" stroke-width="1.5" stroke-linecap="round" stroke-linejoin="round"/>
<path d="M7.56416 8.99707H6.25083H4.9375" stroke="white" stroke-width="1.5" stroke-linecap="round" stroke-linejoin="round"/>
</svg>
