<svg width="27" height="23" viewBox="0 0 27 23" fill="none" xmlns="http://www.w3.org/2000/svg">
<path d="M19.6158 18.2831H14.837L9.52057 21.3967C8.73207 21.8595 7.6688 21.3651 7.6688 20.5236V18.2831C4.08471 18.2831 1.69531 16.1794 1.69531 13.0238V6.7125C1.69531 3.55687 4.08471 1.45312 7.6688 1.45312H19.6158C23.1999 1.45312 25.5893 3.55687 25.5893 6.7125V13.0238C25.5893 16.1794 23.1999 18.2831 19.6158 18.2831Z" stroke="#66718F" stroke-width="1.5" stroke-miterlimit="10" stroke-linecap="round" stroke-linejoin="round"/>
<path opacity="0.4" d="M13.6394 10.8487V10.6278C13.6394 9.91255 14.1412 9.53387 14.643 9.22882C15.1328 8.93429 15.6226 8.55563 15.6226 7.86139C15.6226 6.89366 14.7386 6.11523 13.6394 6.11523C12.5403 6.11523 11.6562 6.89366 11.6562 7.86139" stroke="#66718F" stroke-width="1.5" stroke-linecap="round" stroke-linejoin="round"/>
<path opacity="0.4" d="M13.6328 13.3613H13.6436" stroke="#66718F" stroke-width="1.5" stroke-linecap="round" stroke-linejoin="round"/>
</svg>
