<svg width="37" height="36" viewBox="0 0 37 36" fill="none" xmlns="http://www.w3.org/2000/svg">
<path d="M35.7838 16.9422L19.505 1.04426C18.8229 0.378094 17.8827 0 16.9056 0H3.68715C1.65922 0 0 1.62041 0 3.6009V16.5101C0 17.4644 0.387151 18.3826 1.08771 19.0488L17.3665 34.9467C18.8045 36.3511 21.1458 36.3511 22.5838 34.9467L35.8022 22.0375C37.2402 20.6332 37.2402 18.3646 35.7838 16.9422ZM19.9659 32.4081L3.68715 16.5101V3.6009H16.9056L33.1843 19.4989L19.9659 32.4081Z" fill="#66718F"/>
<path d="M8.2888 10.8027C9.81607 10.8027 11.0542 9.59358 11.0542 8.10204C11.0542 6.6105 9.81607 5.40137 8.2888 5.40137C6.76153 5.40137 5.52344 6.6105 5.52344 8.10204C5.52344 9.59358 6.76153 10.8027 8.2888 10.8027Z" fill="#66718F"/>
</svg>
