<svg width="24" height="24" viewBox="0 0 24 24" fill="none" xmlns="http://www.w3.org/2000/svg">
<path fill-rule="evenodd" clip-rule="evenodd" d="M12 1.84615C10.2009 1.84615 8.46737 2.59042 7.18316 3.92837C5.89771 5.26762 5.16923 7.0918 5.16923 9.00143V14.7717C5.16923 15.684 4.89377 16.5712 4.38528 17.3108H19.6147C19.1062 16.5712 18.8308 15.684 18.8308 14.7717V9.00143C18.8308 7.0918 18.1023 5.26762 16.8168 3.92837C15.5326 2.59042 13.7991 1.84615 12 1.84615ZM23.0769 17.3108C22.4529 17.3108 21.8464 17.0528 21.3931 16.5806C20.9386 16.1071 20.6769 15.457 20.6769 14.7717V9.00143C20.6769 6.62604 19.7716 4.3407 18.1488 2.64997C16.5247 0.957956 14.3138 0 12 0C9.68624 0 7.4753 0.957956 5.85125 2.64997C4.22844 4.3407 3.32308 6.62604 3.32308 9.00143V14.7717C3.32308 15.457 3.06141 16.1071 2.60689 16.5806C2.15362 17.0528 1.5471 17.3108 0.923077 17.3108C0.413276 17.3108 0 17.724 0 18.2338C0 18.7436 0.413276 19.1569 0.923077 19.1569H23.0769C23.5867 19.1569 24 18.7436 24 18.2338C24 17.724 23.5867 17.3108 23.0769 17.3108ZM9.58822 21.0986C10.0336 20.8506 10.5958 21.0106 10.8438 21.456C10.9616 21.6676 11.1281 21.8386 11.3228 21.9555C11.5173 22.0721 11.7346 22.1319 11.9536 22.1319C12.1725 22.1319 12.3899 22.0721 12.5843 21.9555C12.7791 21.8386 12.9456 21.6676 13.0634 21.456C13.3114 21.0106 13.8735 20.8506 14.3189 21.0986C14.7643 21.3466 14.9244 21.9087 14.6764 22.3541C14.4047 22.842 14.0121 23.2517 13.5343 23.5385C13.0561 23.8254 12.5573 24 12 24C11.4427 24 10.8511 23.8254 10.3729 23.5385C9.895 23.2517 9.50243 22.842 9.23077 22.3541C8.98277 21.9087 9.14281 21.3466 9.58822 21.0986Z" fill="white"/>
</svg>
