<svg width="19" height="18" viewBox="0 0 19 18" fill="none" xmlns="http://www.w3.org/2000/svg">
<path d="M11.4368 10.0378C11.5019 10.0926 11.5705 10.1303 11.6185 10.1886C11.8242 10.4286 12.0231 10.5999 12.4036 10.5142C12.7671 10.432 13.0996 10.6171 13.3636 10.881C14.7796 12.2967 16.199 13.7123 17.615 15.1314C18.143 15.6593 18.1156 16.4134 17.6082 16.9687C17.0596 17.5651 16.4493 17.5925 16.0139 17.3766C15.8665 17.3046 15.7259 17.2052 15.6093 17.0887C14.2036 15.6901 12.8082 14.2882 11.4059 12.8897C11.0528 12.54 10.9328 12.1287 11.0322 11.642C11.0459 11.5734 11.0254 11.474 10.9842 11.4192C10.8471 11.2478 10.6928 11.0901 10.5522 10.9324C7.70995 13.1262 4.01053 12.3104 2.17969 9.89382C0.393409 7.54582 0.657408 4.16949 2.82425 2.10942C4.98424 0.056201 8.35451 -0.0432037 10.6345 1.8729C12.9213 3.79587 13.5179 7.32644 11.4368 10.0378ZM6.84595 10.9016C9.35222 10.9016 11.3956 8.8655 11.3991 6.36325C11.3991 3.86442 9.35222 1.81121 6.85281 1.81463C4.35682 1.81806 2.31683 3.85071 2.30997 6.34268C2.30311 8.84494 4.34653 10.8982 6.84252 10.9016H6.84595Z" fill="#66718F" stroke="#66718F" stroke-width="0.2"/>
</svg>
