<svg width="26" height="30" viewBox="0 0 26 30" fill="none" xmlns="http://www.w3.org/2000/svg">
<path d="M25.1867 23.0485H21.2183V19.0801H19.234V23.0485H15.2656V25.0327H19.234V29.0011H21.2183V25.0327H25.1867V23.0485Z" fill="white"/>
<path d="M10.684 26.9286H2.13681V2.07176H10.684V8.28597C10.6857 8.83483 10.9114 9.36075 11.3118 9.74886C11.7121 10.137 12.2546 10.3557 12.8208 10.3574H19.2313V14.5002H21.3681V8.28597C21.3718 8.14985 21.3451 8.01456 21.2898 7.8894C21.2345 7.76425 21.1518 7.6522 21.0476 7.56098L13.5687 0.311063C13.4747 0.209921 13.3591 0.129764 13.23 0.0761211C13.1009 0.0224786 12.9613 -0.00337207 12.8208 0.00035218H2.13681C1.57061 0.00199141 1.02809 0.220754 0.627724 0.608863C0.227361 0.996972 0.00169099 1.52289 0 2.07176V26.9286C0.00169099 27.4775 0.227361 28.0034 0.627724 28.3915C1.02809 28.7796 1.57061 28.9984 2.13681 29H10.684V26.9286ZM12.8208 2.48604L18.8039 8.28597H12.8208V2.48604Z" fill="white"/>
</svg>
