<svg width="36" height="33" viewBox="0 0 36 33" fill="none" xmlns="http://www.w3.org/2000/svg">
<path d="M3.6 3.61905V28.9524H32.4V3.61905H3.6ZM1.8 0H34.2C34.6774 0 35.1352 0.190646 35.4728 0.529997C35.8104 0.869349 36 1.32961 36 1.80952V30.7619C36 31.2418 35.8104 31.7021 35.4728 32.0414C35.1352 32.3808 34.6774 32.5714 34.2 32.5714H1.8C1.32261 32.5714 0.864773 32.3808 0.527208 32.0414C0.189642 31.7021 0 31.2418 0 30.7619V1.80952C0 1.32961 0.189642 0.869349 0.527208 0.529997C0.864773 0.190646 1.32261 0 1.8 0ZM23.0274 12.2921L19.8 9.04762H28.8V18.0952L25.5726 14.8508L18.6174 21.8428L14.7996 18.0048L9.7074 23.1221L7.1622 20.5634L14.7996 12.8856L18.6174 16.7254L23.0274 12.2921Z" fill="#66718F"/>
</svg>
