<svg width="22" height="22" viewBox="0 0 22 22" fill="none" xmlns="http://www.w3.org/2000/svg">
<path d="M21.1916 10.1942L11.6257 0.628333C11.2249 0.2275 10.6724 0 10.0982 0H2.33073C1.13906 0 0.164062 0.975 0.164062 2.16667V9.93417C0.164062 10.5083 0.391562 11.0608 0.803229 11.4617L10.3691 21.0275C11.2141 21.8725 12.5899 21.8725 13.4349 21.0275L21.2024 13.26C22.0474 12.415 22.0474 11.05 21.1916 10.1942ZM11.8966 19.5L2.33073 9.93417V2.16667H10.0982L19.6641 11.7325L11.8966 19.5Z" fill="#66718F"/>
<path d="M5.03906 6.5C5.93653 6.5 6.66406 5.77246 6.66406 4.875C6.66406 3.97754 5.93653 3.25 5.03906 3.25C4.1416 3.25 3.41406 3.97754 3.41406 4.875C3.41406 5.77246 4.1416 6.5 5.03906 6.5Z" fill="#66718F"/>
</svg>
