<svg width="24" height="24" viewBox="0 0 24 24" fill="none" xmlns="http://www.w3.org/2000/svg">
<path d="M15.4787 23H15.3392C10.574 23 8.27724 21.1256 7.88014 16.927C7.83721 16.4878 8.15918 16.0915 8.60994 16.0487C9.03924 16.0058 9.44708 16.3379 9.49001 16.777C9.80125 20.1402 11.3897 21.3934 15.3499 21.3934H15.4895C19.8576 21.3934 21.403 19.851 21.403 15.4917V8.50827C21.403 4.14897 19.8576 2.60662 15.4895 2.60662H15.3499C11.3682 2.60662 9.77978 3.8812 9.49001 7.30866C9.43634 7.7478 9.06071 8.07984 8.60994 8.03699C8.15918 8.00486 7.83721 7.60856 7.8694 7.16942C8.23431 2.90652 10.5418 1 15.3392 1H15.4787C20.7484 1 23.0022 3.24927 23.0022 8.50827V15.4917C23.0022 20.7507 20.7484 23 15.4787 23Z" fill="#66718F" stroke="#66718F" stroke-width="0.5"/>
<path d="M15.2138 12.8039H3.00025C2.56022 12.8039 2.19531 12.4397 2.19531 12.0006C2.19531 11.5614 2.56022 11.1973 3.00025 11.1973H15.2138C15.6538 11.1973 16.0187 11.5614 16.0187 12.0006C16.0187 12.4397 15.6538 12.8039 15.2138 12.8039Z" fill="#66718F" stroke="#66718F" stroke-width="0.5"/>
<path d="M5.39763 16.3915C5.19371 16.3915 4.98979 16.3165 4.82881 16.1559L1.23343 12.5678C0.92219 12.2571 0.92219 11.743 1.23343 11.4324L4.82881 7.84429C5.14005 7.53367 5.65521 7.53367 5.96645 7.84429C6.27769 8.1549 6.27769 8.66902 5.96645 8.97963L2.93989 12.0001L5.96645 15.0205C6.27769 15.3311 6.27769 15.8453 5.96645 16.1559C5.81619 16.3165 5.60155 16.3915 5.39763 16.3915Z" fill="#66718F" stroke="#66718F" stroke-width="0.5"/>
</svg>
