<svg width="26" height="25" viewBox="0 0 26 25" fill="none" xmlns="http://www.w3.org/2000/svg">
<path fill-rule="evenodd" clip-rule="evenodd" d="M17.8719 2.77302C18.3089 1.18375 19.8216 0 21.6104 0C23.7375 0 25.48 1.67125 25.48 3.71052C25.4801 4.18745 25.3833 4.6598 25.195 5.10103C25.1542 5.21453 25.1066 5.32553 25.0468 5.42978L24.784 5.86029L25.6238 6.23579C25.7362 6.28598 25.8313 6.36602 25.898 6.46648C25.9646 6.56694 26 6.68363 26 6.80279V24.3746C26 24.8312 25.507 25.1334 25.0762 24.9412L17.1168 21.3861L9.15746 24.9412C9.07162 24.9795 8.97809 24.9994 8.88342 24.9994C8.78875 24.9994 8.69522 24.9795 8.60938 24.9412L0.376219 21.2639C0.263819 21.2137 0.168685 21.1336 0.102028 21.0332C0.0353715 20.9327 -2.87244e-05 20.816 1.7488e-08 20.6969V3.12502C1.83734e-05 3.02002 0.0275467 2.91672 0.0800443 2.82465C0.132542 2.73258 0.208317 2.65471 0.300373 2.59824C0.392429 2.54176 0.497797 2.50849 0.606753 2.5015C0.715709 2.49452 0.824741 2.51404 0.92378 2.55827L8.88316 6.11329L16.8425 2.55802C16.9284 2.51964 17.0219 2.49975 17.1166 2.49975C17.2112 2.49975 17.3048 2.51964 17.3906 2.55802L17.8719 2.77302ZM23.6665 3.71052C23.6665 2.61226 22.7557 1.73826 21.6104 1.73826C20.4651 1.73826 19.5543 2.61226 19.5543 3.71052C19.5543 4.80853 20.4651 5.68178 21.6104 5.68178C22.7557 5.68178 23.6665 4.80853 23.6665 3.71052ZM7.91496 7.95814L1.5 5L1.47391 19.9742L8 23L7.91496 7.95814ZM17.6382 4.36328V4.50786L17.6387 4.51199L17.6873 20.0935L24.6632 22.7451V7.54641L23.9949 7.34664L21.9521 10.6899C21.6388 11.0984 21.3882 11.1884 21.0112 10.7149L18.3207 6.24238C17.9438 5.7308 17.7091 5.13519 17.6387 4.51199L17.6382 4.36328ZM16.1788 4.58468V10.791V20.0935L10 22.8405V7.44908L16.1788 4.58468Z" fill="white"/>
</svg>
